<svg xmlns="http://www.w3.org/2000/svg" xmlns:xlink="http://www.w3.org/1999/xlink" width="599.942" height="476.681" viewBox="0 0 599.942 476.681">
  <defs>
    <linearGradient id="linear-gradient" x1="0.5" y1="1" x2="0.5" gradientUnits="objectBoundingBox">
      <stop offset="0" stop-color="#836ceb"/>
      <stop offset="1" stop-color="#c3a4eb"/>
    </linearGradient>
    <linearGradient id="linear-gradient-2" y1="0.5" x2="1" y2="0.5" gradientUnits="objectBoundingBox">
      <stop offset="0.016" stop-color="#ffc2a9"/>
      <stop offset="1" stop-color="#ff9595"/>
    </linearGradient>
    <linearGradient id="linear-gradient-3" x1="0.5" y1="1" x2="0.5" gradientUnits="objectBoundingBox">
      <stop offset="0" stop-color="#b9acf4"/>
      <stop offset="1" stop-color="#e1d1f5"/>
    </linearGradient>
    <linearGradient id="linear-gradient-4" x1="0.5" y1="1" x2="0.5" gradientUnits="objectBoundingBox">
      <stop offset="0" stop-color="#0e1b6d"/>
      <stop offset="1" stop-color="#0e4095"/>
    </linearGradient>
    <linearGradient id="linear-gradient-5" x1="0.302" y1="0.217" x2="0.302" y2="-0.636" gradientUnits="objectBoundingBox">
      <stop offset="0" stop-color="#2e33a0"/>
      <stop offset="1" stop-color="#0665a5"/>
    </linearGradient>
    <linearGradient id="linear-gradient-6" x1="-0.077" y1="-0.546" x2="-0.077" y2="-1.515" xlink:href="#linear-gradient-5"/>
    <linearGradient id="linear-gradient-7" x1="3.507" y1="9.104" x2="3.507" y2="7.609" gradientUnits="objectBoundingBox">
      <stop offset="0" stop-color="#313131"/>
      <stop offset="1" stop-color="#365e8b"/>
    </linearGradient>
    <linearGradient id="linear-gradient-8" x1="0.091" y1="0.463" x2="0.091" y2="-0.555" gradientUnits="objectBoundingBox">
      <stop offset="0" stop-color="#1852a0"/>
      <stop offset="1" stop-color="#067ed3"/>
    </linearGradient>
    <linearGradient id="linear-gradient-9" x1="8.497" y1="6.37" x2="8.497" y2="5.608" xlink:href="#linear-gradient-7"/>
    <linearGradient id="linear-gradient-10" x1="0.5" y1="1" x2="0.5" y2="0" xlink:href="#linear-gradient-2"/>
    <linearGradient id="linear-gradient-11" x1="0.5" y1="1" x2="0.5" y2="0" xlink:href="#linear-gradient-5"/>
    <linearGradient id="linear-gradient-13" y1="0.5" x2="1" y2="0.5" gradientUnits="objectBoundingBox">
      <stop offset="0" stop-color="#d5cdf8"/>
      <stop offset="1" stop-color="#f3edfb"/>
    </linearGradient>
    <linearGradient id="linear-gradient-14" x1="0.5" y1="1" x2="0.5" gradientUnits="objectBoundingBox">
      <stop offset="0" stop-color="#ff7c7c"/>
      <stop offset="0.984" stop-color="#ff9e8b"/>
    </linearGradient>
    <linearGradient id="linear-gradient-15" x1="0.5" y1="1" x2="0.5" gradientUnits="objectBoundingBox">
      <stop offset="0" stop-color="#8642a0"/>
      <stop offset="1" stop-color="#6456c0"/>
    </linearGradient>
    <linearGradient id="linear-gradient-16" x1="0.5" y1="1" x2="0.5" gradientUnits="objectBoundingBox">
      <stop offset="0" stop-color="#755cbb"/>
      <stop offset="1" stop-color="#ccedff"/>
    </linearGradient>
    <linearGradient id="linear-gradient-17" x1="0.5" y1="1" x2="0.5" gradientUnits="objectBoundingBox">
      <stop offset="0.016" stop-color="#ff9e8b"/>
      <stop offset="1" stop-color="#ff7c7c"/>
    </linearGradient>
    <linearGradient id="linear-gradient-22" x1="3.473" y1="4.184" x2="3.473" y2="2.983" gradientUnits="objectBoundingBox">
      <stop offset="0" stop-color="#e1616a"/>
      <stop offset="1" stop-color="#ff8883"/>
    </linearGradient>
    <linearGradient id="linear-gradient-24" x1="0.5" y1="1" x2="0.5" gradientUnits="objectBoundingBox">
      <stop offset="0" stop-color="#cf6074"/>
      <stop offset="1" stop-color="#ff817f"/>
    </linearGradient>
    <linearGradient id="linear-gradient-25" x1="0.5" y1="1" x2="0.5" y2="0" xlink:href="#linear-gradient-24"/>
    <linearGradient id="linear-gradient-26" x1="0.454" y1="0.936" x2="0.501" y2="0.23" xlink:href="#linear-gradient-22"/>
    <linearGradient id="linear-gradient-27" x1="0.5" y1="1" x2="0.5" gradientUnits="objectBoundingBox">
      <stop offset="0" stop-color="#ccedff"/>
      <stop offset="1" stop-color="#9d68c2"/>
    </linearGradient>
    <linearGradient id="linear-gradient-29" x1="48.727" y1="3.515" x2="48.727" y2="2.598" gradientUnits="objectBoundingBox">
      <stop offset="0.016" stop-color="#ffac8b"/>
      <stop offset="1" stop-color="#ff9595"/>
    </linearGradient>
    <linearGradient id="linear-gradient-30" x1="73.778" y1="5.548" x2="73.014" y2="4.757" gradientUnits="objectBoundingBox">
      <stop offset="0" stop-color="#ff817f"/>
      <stop offset="1" stop-color="#cf6074"/>
    </linearGradient>
    <linearGradient id="linear-gradient-31" x1="51.172" y1="6.533" x2="51.172" y2="5.604" gradientUnits="objectBoundingBox">
      <stop offset="0" stop-color="#ffa795"/>
      <stop offset="0.984" stop-color="#ffc2a9"/>
    </linearGradient>
    <linearGradient id="linear-gradient-32" x1="0.946" y1="0.749" x2="-0.218" y2="0.221" xlink:href="#linear-gradient-30"/>
    <linearGradient id="linear-gradient-33" x1="0.5" y1="1" x2="0.5" gradientUnits="objectBoundingBox">
      <stop offset="0" stop-color="#776d7e"/>
      <stop offset="1" stop-color="#9d68c2"/>
    </linearGradient>
    <linearGradient id="linear-gradient-34" x1="0.5" y1="1" x2="0.5" y2="0" xlink:href="#linear-gradient-33"/>
    <linearGradient id="linear-gradient-37" x1="0.5" y1="1" x2="0.5" gradientUnits="objectBoundingBox">
      <stop offset="0" stop-color="#9d68c2"/>
      <stop offset="1" stop-color="#ccedff"/>
    </linearGradient>
    <linearGradient id="linear-gradient-41" x1="0.121" y1="-0.096" x2="1.007" y2="-0.096" xlink:href="#linear-gradient-37"/>
    <linearGradient id="linear-gradient-42" x1="0.278" y1="1.559" x2="0.278" y2="-0.051" xlink:href="#linear-gradient-16"/>
    <linearGradient id="linear-gradient-45" y1="0.5" x2="1" y2="0.5" gradientUnits="objectBoundingBox">
      <stop offset="0"/>
      <stop offset="1" stop-color="#6a9bff"/>
    </linearGradient>
    <linearGradient id="linear-gradient-47" y1="0.5" x2="1" y2="0.5" gradientUnits="objectBoundingBox">
      <stop offset="0" stop-color="#e5afae"/>
      <stop offset="1" stop-color="#673e3e"/>
    </linearGradient>
    <linearGradient id="linear-gradient-48" x1="0.5" y1="1.004" x2="0.5" y2="-0.002" gradientUnits="objectBoundingBox">
      <stop offset="0" stop-color="#1f77d1"/>
      <stop offset="1" stop-color="#0686c9"/>
    </linearGradient>
    <linearGradient id="linear-gradient-49" x1="0.5" y1="1.009" x2="0.5" y2="-0.002" xlink:href="#linear-gradient-48"/>
  </defs>
  <g id="charactor" transform="translate(-4.417 -28.487)">
    <path id="Path_320" data-name="Path 320" d="M222,198.926s-.568-18.741-11.336-24.581C210.666,174.345,208.021,197.225,222,198.926Z" transform="translate(71.374 62.907)" fill="url(#linear-gradient)"/>
    <path id="Path_321" data-name="Path 321" d="M163.607,137.6s-7.18,22.207-27.583,46.057c0,0,24.938,3.824,34.008,17.051,0,0,5.391-17.524,19.51-26.9C189.542,173.808,167.754,154.4,163.607,137.6Z" transform="translate(-17.978 18.8)" fill="#fe9083"/>
    <path id="Path_322" data-name="Path 322" d="M147.742,142.318s1.179,35.5,16.227,42.884c0,0,6.079-7.878,11.507-11.4,0,0-18.749-10.3-25.93-36.2Z" transform="translate(-3.913 18.803)" fill="#cb4d7a"/>
    <path id="Path_323" data-name="Path 323" d="M321.9,347.342,398.48,167.625s1.7,4.8,0,8.947c-27.675,67.72-71.419,170.876-71.419,170.876Z" transform="translate(205.125 54.84)" fill="#9b5ed7"/>
    <path id="Path_324" data-name="Path 324" d="M527.129,167.625l-237.412,9.091-75,172.818,235.83-2.192Z" transform="translate(76.476 54.84)" fill="#744ca2"/>
    <path id="Path_325" data-name="Path 325" d="M283.93,179.932l219.789-8.755L432.585,335.307l-209.157-7.436Z" transform="translate(86.932 59.103)" fill="#6dffe8"/>
    <path id="Path_326" data-name="Path 326" d="M273.953,176.694s-2.513,4.865-13.081,20.1c-10.59,15.258-19.407,22.557-21.539,25.829s-14.619,32.128-14.619,32.128a24.689,24.689,0,0,1-8.935-25.727s2.634-4.388,2.394-8.417c-.26-4.029-11.965-21.159-11.965-27.2s12.843-20.4,16.113-28.22c3.272-7.8,8.137-18.708,9.774-19.086s5.223,7.319,4.467,13.742-9.692,12.146-12.225,16.054c-2.513,3.91-2.154,5.983-2.154,5.983s12.363-5.983,16.892-11.029a52.158,52.158,0,0,0,6.561-8.676s4.407-10.091,9.692-19.524a72.561,72.561,0,0,1,8.933-13.1c.759-1.138,4.409-.878,4.926,0,.5.878-2.911,11.706-5.045,16.494-1.118,2.493-3.769,6.98-6.042,10.868-2.095,3.571-3.851,6.6-3.789,7.14.139,1.138,4.049-1.474,6.561-.6,1.813.638,5.923,2.594,6.161,6.064a4.765,4.765,0,0,1-.9,2.572,3.555,3.555,0,0,1,2.174-1.476C271.68,170.609,273.953,173.223,273.953,176.694Z" transform="translate(66.263 8.217)" fill="url(#linear-gradient-2)"/>
    <path id="Path_327" data-name="Path 327" d="M254.306,179.305l-10.366,9.68c-32.151,12.1-29.149-8.551-29.149-8.551,4.546-5.026,20.63-18.261,20.63-18.261s4.407-10.091,9.692-19.524a72.557,72.557,0,0,1,8.933-13.1c.759-1.138,4.409-.878,4.926,0,.5.878-2.911,11.706-5.045,16.494-1.118,2.493-3.769,6.98-6.042,10.868-3.212,1.637-7.857,4.15-7.939,4.887-.119,1.138,2.574,4.806,2.574,4.806L250.4,173a33.838,33.838,0,0,1-1.8,3.868C248.284,177.092,254.306,179.305,254.306,179.305Z" transform="translate(76.476 8.217)" fill="#fe9083"/>
    <path id="Path_328" data-name="Path 328" d="M218.4,136.657s-3.074,13.253,2.937,17.865a13.071,13.071,0,0,0,1.408-9.992C221.358,138.483,218.4,136.657,218.4,136.657Z" transform="translate(79.952 17.665)" fill="#e4688e"/>
    <path id="Path_329" data-name="Path 329" d="M175.294,266.065s56.932-50.421,77.589-91.72c0,0-.378,20.424,11.336,24.581,0,0-44.912,96.739-55.9,111.1C208.32,310.025,185.369,298.814,175.294,266.065Z" transform="translate(29.157 62.907)" fill="url(#linear-gradient-3)"/>
    <path id="Path_330" data-name="Path 330" d="M227.535,142.605s-1.038,5.668-2.152,10.307a5.334,5.334,0,0,0,5.538.042c3.217-1.679,4.161-9.09,3.877-12.186S227.535,142.605,227.535,142.605Z" transform="translate(89.278 21.375)" fill="#fea297"/>
    <path id="Path_331" data-name="Path 331" d="M242.45,153.7s3.285-7.594,1.963-13.262a15.971,15.971,0,0,0-3.683-2.74s-10.77-1.039-22.516-1.039c0,0-1.406,1.6.766,6.042s10.79,4.176,16.082,3.725a50.683,50.683,0,0,0,8.218-1.1A45.035,45.035,0,0,1,242.45,153.7Z" transform="translate(80.136 17.665)" fill="#feb1a8"/>
    <path id="Path_332" data-name="Path 332" d="M237.68,144.279s-9.131,5.23-14.231,11.656c0,0-.7,6.942,6.141,3.221,8.344-4.535,17.263-8.8,17.263-8.8S246.322,144.613,237.68,144.279Z" transform="translate(86.931 26.815)" fill="#feb1a8"/>
    <path id="Path_333" data-name="Path 333" d="M240.706,147.335s-10.663,6.6-12.363,8.623,3.14,4.614,9.529,2.869a15.513,15.513,0,0,0,8.962-5.974S247.885,145.414,240.706,147.335Z" transform="translate(92.418 30.103)" fill="#feb1a8"/>
    <path id="Path_334" data-name="Path 334" d="M213.57,156.495c-.768-1.936,4.1,9.312,4.926,19.218,0,0,3.536-14.833-3.457-25C215.039,150.712,212.734,154.413,213.57,156.495Z" transform="translate(74.88 34.537)" fill="#fe9083"/>
    <path id="Path_335" data-name="Path 335" d="M217.767,165.225s5.107-10.659,20.223-8.881C237.99,156.344,224.183,162.012,217.767,165.225Z" transform="translate(80.137 41.058)" fill="#fe9083"/>
    <path id="Path_336" data-name="Path 336" d="M188.415,125.855s9.747-14.732,7.565-24.282-10.5-10.685-10.5-10.685S188.289,118.112,188.415,125.855Z" transform="translate(41.388 -37.277)" fill="url(#linear-gradient-4)"/>
    <g id="Group_182" data-name="Group 182" transform="translate(528.878 165.062)">
      <path id="Path_337" data-name="Path 337" d="M373.039,191.038l-11.95-1.5c-6.729-2.462-14.132-5.7-19.9-10.753-13.906-12.241-19.2-24.7-18.364-27.5.834-2.784,19.877.147,32.934,9.46C368.069,169.52,372,185.209,373.039,191.038Z" transform="translate(-322.742 -131.05)" fill="url(#linear-gradient-5)"/>
      <path id="Path_338" data-name="Path 338" d="M348.863,178.162s-1.516-9.083.988-14.692,11.783-11.209,12.968-10.146S348.863,178.162,348.863,178.162Z" transform="translate(-291.934 -127.547)" fill="url(#linear-gradient-6)"/>
      <path id="Path_339" data-name="Path 339" d="M322.781,150.735s26.912,10.954,35.172,19.808a77.888,77.888,0,0,1,12.515,17.966S337.769,187.984,322.781,150.735Z" transform="translate(-322.694 -130.498)" opacity="0.82" fill="url(#linear-gradient-7)" style="mix-blend-mode: color-dodge;isolation: isolate"/>
      <path id="Path_340" data-name="Path 340" d="M365.916,189.329a76.263,76.263,0,0,1-13.5,12.793l-2.667-.334.841-.863s-7.217-6.491-6.671-21.509c.541-15,17.173-40.316,21.7-37.689S374.423,179.06,365.916,189.329Z" transform="translate(-297.357 -141.538)" fill="url(#linear-gradient-8)"/>
      <path id="Path_341" data-name="Path 341" d="M347.678,199.553s2.88-40.413,12.315-57.651C359.993,141.9,377.978,181.789,347.678,199.553Z" transform="translate(-292.811 -141.101)" opacity="0.82" fill="url(#linear-gradient-9)" style="mix-blend-mode: color-dodge;isolation: isolate"/>
    </g>
    <path id="Path_452" data-name="Path 452" d="M230.023,97.855c9.16,6.678,4.156,61.218,5.668,66.129s6.8,9.449,7.558,14.738-14.738,54.416-33.629,58.952-46.479-12.848-58.193-45.346-1.512-71.8,7.936-83.893S211.886,84.629,230.023,97.855Z" transform="translate(-5.798 -35.927)" fill="url(#linear-gradient-10)"/>
    <path id="Path_453" data-name="Path 453" d="M230.281,117.682l-5.441,1.5s-11.714-6.8-34.054-11.218c-28.654-5.673-36.08,29.2-36.881,35.926l-3.413-18.657.48-22.046,39.955-8.476,34.76,9.081,4.035,4.172S230.144,114.095,230.281,117.682Z" transform="translate(-0.612 -32.693)" fill="#e4688e"/>
    <path id="Path_454" data-name="Path 454" d="M239.156,137.469c-1.894-10.192-10.59-18.33-10.59-18.33a29.5,29.5,0,0,1-4.068,1.076c-6.321,1.237-14.06.838-26.722.062-10.968-.658-19.545,3.45-24.051,4.766-.26.079-.5.139-.739.2-4.964,1.175-2.233,4.108-2.233,4.108a27.808,27.808,0,0,1,.2,23.613c-3.611,7.66-3.93,18.448-3.63,25.648.18,4.528.6,7.62.6,7.62l-5.285-2.473a236.525,236.525,0,0,1-14.08-19.546,62.209,62.209,0,0,1-5.285-9.933c-2.013-5.224-3.628-9.493-4.328-13-.717-3.611-.477-6.423,1.278-8.716,3.45-4.526,25.068-11.088,25.068-11.088a9.423,9.423,0,0,1-7.38-5.924c-2.253-5.466,1.815-15.856,1.815-15.856a35.746,35.746,0,0,0,6.66,19.205c-.059-.119-.2-.418-.378-.838l-.02-.02a.061.061,0,0,0-.02-.04.659.659,0,0,1-.059-.119c-.838-1.914-2.473-5.943-2.213-7.979a2.9,2.9,0,0,1,.079-.4,1.757,1.757,0,0,1,.18-.458,2,2,0,0,1,.119-.22,3.6,3.6,0,0,1,.319-.458,1.964,1.964,0,0,1,.438-.48c1.039-.957,2.973-2.013,6.643-3.45a.629.629,0,0,0,.178-.059c3.71-1.437,9.195-3.232,17.25-5.644A96.7,96.7,0,0,0,223.662,79.47s13.86,1.855,22.595,11.029c0,0,.04.042.119.141a24.318,24.318,0,0,1,6.024,10.93C257.126,120.475,239.156,137.469,239.156,137.469Z" transform="translate(-14.929 -50.983)" fill="url(#linear-gradient-11)"/>
    <path id="Path_455" data-name="Path 455" d="M216.13,114.183c-7.18,2.471-13.554,0-29.834-3.164-11.415-2.22-26.96,1.228-30.87,3.164l-2.233-.519s8.3-7.022,22.676-20.583C190.268,79.52,212.361,100.4,216.13,114.183Z" transform="translate(2.63 -39.923)" fill="url(#linear-gradient-4)"/>
    <path id="Path_456" data-name="Path 456" d="M193.253,201.543s8.086-12.784,4.673-23.058c0,0-20.779-12.74-58.191-23.058l-6.8,12.468S169.435,177.295,193.253,201.543Z" transform="translate(-21.689 40.197)" fill="url(#linear-gradient-13)"/>
    <path id="Path_457" data-name="Path 457" d="M151.867,119.978s23.512,14.516,28.437,31.768,0,38.648,0,38.648-23.8-42.011-26.819-52.788S151.867,119.978,151.867,119.978Z" transform="translate(0.647 -2.357)" fill="url(#linear-gradient-14)"/>
    <path id="Path_458" data-name="Path 458" d="M270.807,295.563a126.668,126.668,0,0,1-6.022,18.686c-17.569,44.217-59.15,98.984-60.446,100.68l-.04.04,7.4,5.483C168.7,452.2,88.43,472.587,84.641,449.293c-3.771-23.316,34.52-76.966,49.139-128.98,14.6-52,18.328-115.656,20.96-120.764,12.3-23.793,37.631-39.429,37.631-39.429,32.927,9.473,68.545,39.929,68.545,39.929S281.4,249.391,270.807,295.563Z" transform="translate(-79.964 45.831)" fill="url(#linear-gradient-15)"/>
    <path id="Path_459" data-name="Path 459" d="M195.77,185.1l-1.589-4.786s-8.189-8.194-19.552-.341-27.671,32.921-33.057,62.774,3.193,68.651,21.2,86.1c0,0,27.616-11.66,35.279-34.331l-19.354-52.9Z" transform="translate(-13.229 65.571)" opacity="0.5" fill="url(#linear-gradient-16)" style="mix-blend-mode: multiply;isolation: isolate"/>
    <rect id="Rectangle_82" data-name="Rectangle 82" width="208.583" height="12.596" transform="translate(196.768 404.373)" fill="#36295c"/>
    <path id="Path_460" data-name="Path 460" d="M388.273,249.3v11.765L266.6,264.087v-12.6Z" transform="translate(138.75 152.883)" fill="#9b5ed7"/>
    <path id="Path_461" data-name="Path 461" d="M162.359,121.016s-2.533,11.537-1.076,21.357c0,0,17.7,10.34,29.039,5.924,0,0,5.331-21.236,2.1-42.209,0,0-6,5.668-11.736,5.858S164.06,118.371,162.359,121.016Z" transform="translate(11.798 -19.03)" fill="url(#linear-gradient-17)"/>
    <path id="Path_462" data-name="Path 462" d="M280.969,274.144h80.61s-11.712-23.606-40.3-25.873S280.969,274.144,280.969,274.144Z" transform="translate(155.997 151.493)" fill="#36295c"/>
    <path id="Path_463" data-name="Path 463" d="M389.474,249.489c.84,3.47-8.258,5.5-10.014,4.6,0,0,8.313,9.891,8.313,12.146,0,.937-.9,1.3-2.075,1.316a9.418,9.418,0,0,1-4.667-1.276,4.253,4.253,0,0,1,.6.559,2.187,2.187,0,0,1,.717,2.431c-.339.68-1.974.638-3.868.3a29.623,29.623,0,0,1-6.321-1.934c-4.229-2.075-10.37-7.18-10.37-7.18s-11.708.937-19.825,3.67L344.3,260.9c2.035.22,9.725-.262,13.954.794,2.412.618,15.536,10.186,15.536,11.123,0,1.895-7.054,3.886-20.782-5.88,0,0-23.052,11.524-36.276,12.58-16.751,1.336-26.7-4.088-26.7-4.088l-30.991,1.4s11.008-14.58,20.181-19.188c0,0,76.442-15.715,85.5-13.821C373.792,245.715,388.944,247.3,389.474,249.489Z" transform="translate(129.677 146.117)" fill="url(#linear-gradient-2)"/>
    <path id="Path_464" data-name="Path 464" d="M424.542,334.443s-15.376,6.8-21.657,22.158c0,0-102.029,4.786-143.351-1.756,0,0-37.973-41.225-66.471-63.163-.04-.04-.079-.059-.1-.079,0,0-7.18,24.951-31.072,28.339,0,0-29.935-31.253-18.148-81.612,10.271-43.9,41.981-59.792,42.978-60.272l.02-.02s12.086,6.962,18.128,15.3c0,0,1.2,2.434,3.351,6.621C219.028,221,254.13,286.417,283.983,309.512c0,0,76.442,17.392,124.963,23.355h.02C414.59,333.565,419.835,334.1,424.542,334.443Z" transform="translate(-12.012 67.341)" fill="url(#linear-gradient-3)"/>
    <path id="Path_465" data-name="Path 465" d="M410.1,326.914s-15.376,6.8-21.657,22.158c0,0-102.029,4.786-143.351-1.756,0,0-37.973-41.225-66.471-63.163-.04-.04-.079-.059-.1-.079-3.311-2.574-21.719,7.937-21.719,7.937a145.956,145.956,0,0,1-3.329-21.261c-4.368-54.168,25.048-86.439,25.048-86.439,5.844.381,12.922,7.18,12.922,7.18l2.335.937c10.808,21.043,45.909,86.459,75.762,109.555,0,0,76.442,17.392,124.963,23.355h.02C400.145,326.036,405.391,326.575,410.1,326.914Z" transform="translate(2.433 74.87)" fill="url(#linear-gradient-13)"/>
    <path id="Path_466" data-name="Path 466" d="M237.887,150.32c-.618-2.075-2.614.757-12.247,2.093-9.631,1.318-24.37-6.24-24.37-6.24-11.147-.381-23.811,7.158-23.811,7.158-7.857-.02-14.938-12.226-18.865-20.521v-.02c-2.015-4.289-3.19-7.519-3.19-7.519-2.792,2.172-2.315,4.667-2.315,4.667.937,9.075-4.526,22.475-4.526,22.475s2.073,15.678,21.717,33.807a52.209,52.209,0,0,0,43.277,13.163.061.061,0,0,0,.04-.02C232.441,189.269,238.485,152.412,237.887,150.32Zm-17.532,29.855c-3.589,0-2.273-10.012-7.558-10.949-5.285-.957-13.6,11.906-19.563,8.117-5.963-3.769-5.545-20.024-3.012-22.856,3.87-4.348,9.912-4.168,9.912-4.168a45.812,45.812,0,0,0,15.875,8.535c9.831,3.032,15.494-2.671,15.494-2.671C234.516,169.985,223.946,180.175,220.355,180.175Z" transform="translate(-2.929 3.996)" fill="url(#linear-gradient-11)"/>
    <g id="Group_185" data-name="Group 185" transform="translate(203.362 134.336)">
      <path id="Path_467" data-name="Path 467" d="M198.3,139.637s-3.512-10.841-10.278-11.99S174.8,139.432,174.8,139.432Z" transform="translate(-174.799 -127.574)" fill="#ff9b98"/>
      <path id="Path_468" data-name="Path 468" d="M198.3,133.523c.348-.878-18.775-1.292-23.5-.2a18.619,18.619,0,0,0,10.777,6.315C192.406,140.8,197.425,135.757,198.3,133.523Z" transform="translate(-174.799 -121.461)" fill="url(#linear-gradient-22)"/>
      <path id="Path_469" data-name="Path 469" d="M181.92,137.87s-2.515-4.394-6.731-4.471C175.189,133.4,178.734,136.986,181.92,137.87Z" transform="translate(-174.331 -120.582)" fill="#9f4a8b"/>
      <path id="Path_470" data-name="Path 470" d="M182.323,143.968s5.936-2.244,6.949-5.664a32.089,32.089,0,0,0-5.457-9.62s3.8,6.658,3.679,9.38C187.494,138.064,185.447,142.421,182.323,143.968Z" transform="translate(-165.768 -126.242)" fill="#cb4d7a"/>
    </g>
    <path id="Path_471" data-name="Path 471" d="M191.588,106.088a17.44,17.44,0,0,1-5.122,8.5s-15.114.946-24.94,6.425c0,0,2.871-5.864,11.38-8.5C183.168,109.329,191.588,106.088,191.588,106.088Z" transform="translate(12.632 -19.03)" fill="#38368e"/>
    <path id="Path_472" data-name="Path 472" d="M189.079,110.819s-8.022,20.1-8.082,25.906.337,6.7.337,6.7,9.73,4.242,12.564-.86c0,0-1.1-15.869.02-26.073C193.917,116.487,193.325,106.85,189.079,110.819Z" transform="translate(35.996 -14.502)" fill="url(#linear-gradient-17)"/>
    <path id="Path_473" data-name="Path 473" d="M180.54,118.453s4.156,7.495.242,15.007c0,0-10.968,1.809-16.68-7.512C164.1,125.948,168.637,118.453,180.54,118.453Z" transform="translate(15.724 -4.187)" fill="#ffebed"/>
    <path id="Path_474" data-name="Path 474" d="M180.292,120.491a44.466,44.466,0,0,0-2.869-5.074s-10.487,3.91-13.321,14.175h.568S168.921,123.295,180.292,120.491Z" transform="translate(15.724 -7.832)" fill="url(#linear-gradient-24)"/>
    <path id="Path_475" data-name="Path 475" d="M180.675,128.383s3.769-9.675,10.575-10.052c0,0,1.8,6.045.759,10.958,0,0-.832,4.911-4.233,4.724S180.675,128.383,180.675,128.383Z" transform="translate(35.616 -4.334)" fill="#ffebed"/>
    <path id="Path_476" data-name="Path 476" d="M191.094,119.675s-2-4.3-3.8-4.258c-1.151.026-5.9,6.6-6.484,15.757A19.7,19.7,0,0,1,191.094,119.675Z" transform="translate(35.778 -7.832)" fill="url(#linear-gradient-25)"/>
    <path id="Path_477" data-name="Path 477" d="M175.482,118.946s1,11.009-3.914,12.756c0,0-5.67-2.062-7.466-6.346A15.624,15.624,0,0,1,175.482,118.946Z" transform="translate(15.724 -3.595)" fill="#7f9ec9"/>
    <path id="Path_478" data-name="Path 478" d="M188.044,118.946s1.941,11.026-2.478,13.568c0,0-4.137-2.643-4.891-4.87C180.675,127.644,183.225,120.88,188.044,118.946Z" transform="translate(35.616 -3.595)" fill="#7f9ec9"/>
    <path id="Path_479" data-name="Path 479" d="M164.1,127.2s5.712-6.078,16.438-7.495l.8,1.835s4.313-2.834,3.307-3.8C183.508,116.648,170.716,117.94,164.1,127.2Z" transform="translate(15.724 -5.436)" fill="#131163"/>
    <path id="Path_480" data-name="Path 480" d="M180.675,129.912s2.825-7.867,10.575-10.052l.477,1.989s4.44-3.8,3.936-4.473C194.812,116.234,184.3,117.673,180.675,129.912Z" transform="translate(35.616 -5.863)" fill="#131163"/>
    <path id="Path_481" data-name="Path 481" d="M171.906,138.019s6.629,8.025,17.068,9.317,14.124-3.38,14.124-3.38-3.78,6.447-14.124,5.748-19.662-11.684-19.662-11.684Z" transform="translate(21.977 19.3)" fill="url(#linear-gradient-26)"/>
    <path id="Path_482" data-name="Path 482" d="M167.535,122.082s3.448-1.039,5.873,0C173.408,122.082,169.682,123.266,167.535,122.082Z" transform="translate(19.844 -0.385)" fill="#fff"/>
    <path id="Path_483" data-name="Path 483" d="M182.882,122.131s3.45-1.036,5.873,0C188.755,122.131,185.029,123.317,182.882,122.131Z" transform="translate(38.265 -0.325)" fill="#fff"/>
    <path id="Path_484" data-name="Path 484" d="M188.416,111.028s-8.315,19.584-8.275,23.912,6.293,14.939,6.293,14.939-4.654-9.193-4.416-14.556,7.091-21.344,7.091-21.344Z" transform="translate(34.975 -13.1)" fill="#cb4d7a"/>
    <path id="Path_485" data-name="Path 485" d="M182.323,125.686s4.027-15.588,8.277-17.977c3.129-1.76,1.718,11.554,1.718,11.554s.161-4.157-3.047-3.4S182.323,125.686,182.323,125.686Z" transform="translate(37.594 -17.278)" fill="#38368e"/>
    <path id="Path_486" data-name="Path 486" d="M281.7,190.031l105.828-4.515L331.8,318.65l-100.624-3.615Z" transform="translate(126.601 73.573)" fill="#fff"/>
    <path id="Path_487" data-name="Path 487" d="M197.858,131.375c-1.894-10.192-10.59-18.33-10.59-18.33a29.505,29.505,0,0,1-4.068,1.076L172.971,96.393c14.517,5.943,20.839,21.52,20.839,21.52s6.183,5.523,6.841-6.584c.638-11.746-6.64-20.84-7.078-21.379A46.069,46.069,0,0,1,205.916,106.9c4.229-15.077-.04-21.36-.838-22.356a24.318,24.318,0,0,1,6.024,10.93C215.828,114.382,197.858,131.375,197.858,131.375Z" transform="translate(26.369 -44.89)" opacity="0.5" fill="url(#linear-gradient-27)" style="mix-blend-mode: multiply;isolation: isolate"/>
    <path id="Path_488" data-name="Path 488" d="M187.976,95.458c-.678.678-11.607,11.587-14.458,15.876v.119c-.26.079-.5.139-.739.2-4.964,1.175-2.233,4.108-2.233,4.108a27.808,27.808,0,0,1,.2,23.613c-3.611,7.66-3.93,18.448-3.63,25.648L164.6,169.41l-8.834-14.657-7.419-4.13a62.209,62.209,0,0,1-5.285-9.933c-2.013-5.224-3.628-9.493-4.328-13a99.09,99.09,0,0,0,15.378-5.884c13.6-6.421,17.191-13.324,17.191-13.324l-5.505-4.009-.02-.02a.061.061,0,0,0-.02-.04.658.658,0,0,1-.059-.119c-.519-.9-2.753-5.1-2.214-7.979a2.906,2.906,0,0,1,.079-.4,1.756,1.756,0,0,1,.18-.458,1.989,1.989,0,0,1,.119-.22,3.6,3.6,0,0,1,.319-.458,1.964,1.964,0,0,1,.438-.48c1.936-1.974,5.785-3.21,6.643-3.45a.629.629,0,0,0,.178-.059,6.382,6.382,0,0,0,1.2,7.2C175.751,101.28,187.239,95.8,187.976,95.458Z" transform="translate(-14.723 -37.393)" opacity="0.5" fill="url(#linear-gradient-27)" style="mix-blend-mode: multiply;isolation: isolate"/>
    <g id="Group_186" data-name="Group 186" transform="translate(119.873 111.512)">
      <path id="Path_489" data-name="Path 489" d="M162.951,126.832s-13.5-16.525-23.314-4.487c-7.512,9.211,1.144,39.726,14.5,39.762S171.259,138.639,162.951,126.832Z" transform="translate(-136.854 -116.299)" fill="url(#linear-gradient-29)"/>
      <path id="Path_490" data-name="Path 490" d="M159.371,135.69s-4.726-15.053-20.058-11.878a12.215,12.215,0,0,1,9.193,5.1s.251,13.938,3.351,17.518S160.348,140.689,159.371,135.69Z" transform="translate(-133.903 -109.794)" fill="url(#linear-gradient-30)"/>
      <path id="Path_491" data-name="Path 491" d="M137.3,126.676s4.35-5.58,15.389-2.929S166.324,137.7,166.324,137.7s-4.123-17.59-15.318-20.2C141.2,115.22,137.3,126.676,137.3,126.676Z" transform="translate(-136.317 -117.201)" fill="url(#linear-gradient-31)"/>
      <path id="Path_492" data-name="Path 492" d="M144.165,123.451s-5.446,9.22-2.676,18.29c0,0,.642-9.574,5.989-15.621Z" transform="translate(-132.234 -109.699)" fill="url(#linear-gradient-32)"/>
    </g>
    <path id="Path_493" data-name="Path 493" d="M213.6,199.363a.061.061,0,0,1-.04.02,52.209,52.209,0,0,1-43.277-13.163c-19.644-18.129-21.717-33.807-21.717-33.807s5.463-13.4,4.526-22.475c0,0-.477-2.5,2.315-4.667,0,0,1.175,3.23,3.19,7.519v.02a137.223,137.223,0,0,0,.158,24.31c1.338,11.528,20.982,33.449,20.982,33.449s24.289-2.693,32.866,0C220.855,193.16,214.135,198.9,213.6,199.363Z" transform="translate(-2.929 3.996)" opacity="0.5" fill="url(#linear-gradient-33)" style="mix-blend-mode: multiply;isolation: isolate"/>
    <path id="Path_494" data-name="Path 494" d="M172,136.654s20.227,11.909,31.369,5.864C203.37,142.518,194.477,153.417,172,136.654Z" transform="translate(25.205 17.662)" opacity="0.5" fill="url(#linear-gradient-34)" style="mix-blend-mode: multiply;isolation: isolate"/>
    <path id="Path_495" data-name="Path 495" d="M211.646,170.516s13.186,10.848,21.16,2.016l-10.581,22.88S212.027,188.777,211.646,170.516Z" transform="translate(72.79 58.31)" fill="url(#linear-gradient-14)"/>
    <path id="Path_496" data-name="Path 496" d="M209.04,178.818s.843,20.6,9.873,29.574c0,0-8.172-2.06-11.664-26.682Z" transform="translate(67.512 68.276)" opacity="0.5" fill="url(#linear-gradient-27)" style="mix-blend-mode: multiply;isolation: isolate"/>
    <path id="Path_497" data-name="Path 497" d="M223.88,187.909c-3.754,8.139-23.717,30.81-28.72,41.4-3.842,12.093,14.958,13.037,14.958,13.037S234.1,226.082,241.8,209.794c0,0-26.74,55.688-31.541,63.962,0,0-22.364-27.941-26.934-40.569C202.084,214.561,211.309,203.8,223.88,187.909Z" transform="translate(38.796 79.189)" opacity="0.3" fill="url(#linear-gradient-37)" style="mix-blend-mode: multiply;isolation: isolate"/>
    <path id="Path_498" data-name="Path 498" d="M181.663,230.054s-8.027,24.852-31.171,28.26c0,0,3.12-14.928,9.353-20.4S178.464,227.542,181.663,230.054Z" transform="translate(-0.612 128.969)" fill="#4723a9" opacity="0.5"/>
    <path id="Path_499" data-name="Path 499" d="M424.542,334.432s-15.376,6.8-21.657,22.158c0,0-102.029,4.786-143.351-1.756,0,0-37.973-41.225-66.471-63.163-.04-.04-.079-.059-.1-.079,0,0-7.18,24.951-31.072,28.339,0,0-29.935-31.253-18.148-81.612,10.271-43.9,41.981-59.792,42.978-60.272-.878.957-29.1,31.591-34.342,59.693-4.068,21.819,9.094,35.341,15.536,40.527a34.9,34.9,0,0,0,3.329,2.374l23.913,4.947s45.469,45.672,68.2,56.641c22.755,10.969,125.92-2.115,145.584-9.374h.02C414.59,333.554,419.835,334.093,424.542,334.432Z" transform="translate(-12.012 67.352)" opacity="0.3" fill="url(#linear-gradient-37)" style="mix-blend-mode: multiply;isolation: isolate"/>
    <path id="Path_500" data-name="Path 500" d="M253.145,272.73s7.186-14.67,21.189-24.328c0,0-16.082,14.149-17.783,24.328Z" transform="translate(122.601 151.807)" opacity="0.5" fill="url(#linear-gradient-27)" style="mix-blend-mode: multiply;isolation: isolate"/>
    <path id="Path_501" data-name="Path 501" d="M145.226,422.715c2.335-.7,40.186-12.065,66.471-23.773-43,31.752-123.267,52.135-127.055,28.841-3.771-23.316,34.52-76.966,49.139-128.98,14.6-52,18.328-115.656,20.96-120.764,0,0-8.489,93.767-25.508,147.569-17.376,54.929,8.066,47.375,38.426,38.756,0,0,44.039-14.549,68.13-44.042,15.569-19.06,25.129-28.72,25.129-28.72l3.868,1.135c-17.569,44.217-59.15,98.984-60.446,100.68l-.04.04S180.626,407.776,145.226,422.715Z" transform="translate(-79.964 67.341)" opacity="0.5" fill="url(#linear-gradient-16)" style="mix-blend-mode: multiply;isolation: isolate"/>
    <path id="Path_502" data-name="Path 502" d="M213.142,195.9s-49.74,19.725-72.414,18.946c-22.676-.757-24.37-15.3-24.37-15.3,12.3-23.793,37.631-39.429,37.631-39.429C184.622,170.372,213.142,195.9,213.142,195.9Z" transform="translate(-41.583 45.831)" fill="#ce47b8" opacity="0.5"/>
    <path id="Path_503" data-name="Path 503" d="M145.262,213.678s55.848,37.161,103.6,43.26C248.862,256.938,187.1,226.163,145.262,213.678Z" transform="translate(-6.89 110.123)" opacity="0.3" fill="url(#linear-gradient-41)" style="mix-blend-mode: multiply;isolation: isolate"/>
    <path id="Path_504" data-name="Path 504" d="M106.344,292.027s34.571-9.592,60.869-62.65C167.213,229.377,129.317,275.28,106.344,292.027Z" transform="translate(-53.602 128.968)" opacity="0.5" fill="url(#linear-gradient-42)" style="mix-blend-mode: multiply;isolation: isolate"/>
    <path id="Path_505" data-name="Path 505" d="M197.291,174.05s-28.128-1.7-40.868-5.219a80.128,80.128,0,0,1-21.759-9.708l-1.2,2.2a218.11,218.11,0,0,1,60.224,33.295A28.051,28.051,0,0,0,197.291,174.05Z" transform="translate(-21.054 44.633)" opacity="0.3" fill="url(#linear-gradient-37)" style="mix-blend-mode: multiply;isolation: isolate"/>
    <path id="Path_506" data-name="Path 506" d="M175.315,265.115s-35.134,36.6-45.786,77.662l20.619-11.312s49.766-69.241,59.5-98.372l-2.926-3.444s-9.439,23.419-31.072,28.339Z" transform="translate(-25.774 129.295)" opacity="0.5" fill="url(#linear-gradient-16)" style="mix-blend-mode: multiply;isolation: isolate"/>
    <path id="Path_509" data-name="Path 509" d="M516.673,167.625,223.428,305.369l55.833-128.654Z" transform="translate(86.932 54.84)" opacity="0.6" fill="url(#linear-gradient-45)" style="mix-blend-mode: color-dodge;isolation: isolate"/>
    <path id="Path_510" data-name="Path 510" d="M279.274,249.8s-.757,7.308,9.32,18.266l-28.355,1.267s5.84-13.372,17.853-19.256Z" transform="translate(131.115 153.487)" fill="url(#linear-gradient-14)"/>
    <path id="Path_511" data-name="Path 511" d="M335.572,261.358h-.119a18.17,18.17,0,0,1-6.953-2.647c-3.787-2.8-10.216-7.794-10.216-7.794s-8.553-.869-13.717-.095l-9.681,2.81,17.756-.581,6.119-.808S325.35,259.987,335.572,261.358Z" transform="translate(172.703 154.326)" fill="#e4688e"/>
    <path id="Path_512" data-name="Path 512" d="M319.817,253.043a76.586,76.586,0,0,0-11.085-8.507s15.4,3.8,18.592,7.2C327.324,251.738,323.723,254.244,319.817,253.043Z" transform="translate(189.321 147.166)" fill="#e4688e"/>
    <path id="Path_513" data-name="Path 513" d="M333.39,283.892l-1.955-7.264,38.825-91.112v8.692Z" transform="translate(216.57 76.317)" opacity="0.2" fill="url(#linear-gradient-47)" style="mix-blend-mode: color-dodge;isolation: isolate"/>
    <g id="Group_187" data-name="Group 187" transform="translate(192.886 420.556)">
      <path id="Path_514" data-name="Path 514" d="M302.255,302.384c-6.176,0-12.471-.733-16.3-2.165-2.812-1.052-4.24-2.46-4.246-4.183-.007-1.481,1.063-2.973,3.287-4.535-9.5-.656-19.976-1.208-29.99-1.736-51.407-2.713-85.094-5.125-84.971-13.592.042-2.9.152-10.6,113.95-15.548,55.8-2.427,112.3-2.971,112.864-2.975l.018,2c-.563,0-57.034.548-112.8,2.971-101.008,4.392-112,10.965-112.038,13.588-.1,7.18,47.975,9.717,83.083,11.57,12.731.673,23.728,1.274,32.888,1.936a65.994,65.994,0,0,1,6.918-3.039c36.538-14.008,154.557-7.061,159.562-6.758l-.119,1.989c-1.221-.07-122.593-7.222-158.728,6.63-1.353.519-2.552,1.012-3.617,1.479,17.4,1.38,27.2,3.074,28.494,6.133a2.373,2.373,0,0,1-.574,2.585C317.776,301.2,310.11,302.384,302.255,302.384ZM288.44,291.749c-4.3,2.339-4.737,3.787-4.735,4.278,0,.775,1.078,1.624,2.953,2.324,8.28,3.1,28.773,2.491,31.781-.935.136-.158.288-.37.233-.5C317.668,294.537,304.885,292.961,288.44,291.749Z" transform="translate(-170.038 -257.649)" fill="#36295c"/>
    </g>
    <path id="Path_712" data-name="Path 712" d="M153.836,115.433a65.728,65.728,0,0,1-.18-15.326,19.828,19.828,0,0,1,2.286-7.5,6.255,6.255,0,0,1,3.122-2.757,11.766,11.766,0,0,1,3.967-.841,52.135,52.135,0,0,1,7.741.381c2.528.224,5.039.425,7.545.42a49.268,49.268,0,0,0,14.757-2.2c2.4-.667,4.634-1.754,7.369-2.332a12.906,12.906,0,0,1,8.046.871,17.132,17.132,0,0,1,6.233,5.008,29.85,29.85,0,0,1,4.026,6.72,57.413,57.413,0,0,1,4.183,14.844,48.875,48.875,0,0,1-.013,15.3,52.564,52.564,0,0,0-1-15.13A56.621,56.621,0,0,0,217.3,98.565c-2.231-4.383-5.177-8.762-9.576-10.676a10.951,10.951,0,0,0-6.891-.651c-2.251.482-4.658,1.642-7.153,2.372a51.276,51.276,0,0,1-15.376,2.1c-5.173-.013-10.308-1.045-15.2-1.1-2.427.086-4.849.583-6.053,2.709a19.115,19.115,0,0,0-2.387,6.942A72.843,72.843,0,0,0,153.836,115.433Z" transform="translate(2.746 -44.347)" fill="url(#linear-gradient-48)"/>
    <path id="Path_713" data-name="Path 713" d="M151.541,102.743,178.525,92.02l13.486-5.343c2.26-.882,4.458-1.833,6.75-2.691l3.575-1.153c1.215-.3,2.478-.42,3.716-.634a24.3,24.3,0,0,1,14.52,3.188,26.283,26.283,0,0,1,10.11,10.791,31.842,31.842,0,0,1,3.481,14.268,39.542,39.542,0,0,1-2.937,14.241,41.988,41.988,0,0,0,1.914-14.208,30.7,30.7,0,0,0-3.873-13.537,26,26,0,0,0-9.642-9.906,22.359,22.359,0,0,0-13.369-2.759c-1.144.187-2.308.279-3.439.537l-3.344,1.034c-2.251.808-4.511,1.747-6.77,2.6-4.526,1.723-9.039,3.481-13.615,5.072C169.968,96.775,160.809,99.92,151.541,102.743Z" transform="translate(0.647 -47.836)" fill="url(#linear-gradient-49)"/>
    <g id="Group_189" data-name="Group 189" transform="translate(186.207 37.194)">
      <path id="Path_714" data-name="Path 714" d="M190.2,86.8a13.539,13.539,0,0,0-5.914-1.666,2.356,2.356,0,0,0-.986.108,1.931,1.931,0,0,0-1.05,1.525,3.968,3.968,0,0,0,1.978,3.976,4.924,4.924,0,0,0,4.544.035,3.322,3.322,0,0,0,1.756-1.824,1.863,1.863,0,0,0-.816-2.233.4.4,0,0,0-.04.676Z" transform="translate(-148.756 -81.383)" fill="#5990ff" opacity="0.5"/>
      <path id="Path_715" data-name="Path 715" d="M175.6,85.637a2.513,2.513,0,0,0-1.941-1.463,2.639,2.639,0,0,0-.493,2.383,1.6,1.6,0,0,0,2.02,1,1.149,1.149,0,0,0,.081-2Z" transform="translate(-159.743 -82.53)" fill="#5990ff" opacity="0.5"/>
      <path id="Path_716" data-name="Path 716" d="M180.212,86.423a.57.57,0,1,0-.669-.731.449.449,0,0,0,0,.5c.15.189.44.158.676.112l-.11.167Z" transform="translate(-152.038 -81.151)" fill="#5990ff" opacity="0.5"/>
      <path id="Path_717" data-name="Path 717" d="M181.019,86.524a.571.571,0,0,1,.315.156.984.984,0,0,1-.882.024c-.163-.051-.352-.143-.363-.312-.009-.119.079-.222.114-.334.07-.229-.042-.55.167-.665a.294.294,0,0,1,.354.11.842.842,0,0,1,.128.378l.143.871Z" transform="translate(-151.296 -81.097)" fill="#5990ff" opacity="0.5"/>
      <path id="Path_718" data-name="Path 718" d="M171.9,84.242c-.141-.2-.5,0-.5.244a.9.9,0,0,0,.374.614.868.868,0,0,0,.264-.926Z" transform="translate(-161.728 -82.548)" fill="#5990ff" opacity="0.5"/>
      <path id="Path_719" data-name="Path 719" d="M180.925,91.848a.914.914,0,0,0-.3-.2.3.3,0,0,0-.33.077c-.123.158.007.389-.031.585s-.242.352-.211.55a.339.339,0,0,0,.473.2.864.864,0,0,0,.376-.44.964.964,0,0,0,.13-.5.38.38,0,0,0-.326-.359Z" transform="translate(-151.343 -73.58)" fill="#5990ff" opacity="0.5"/>
      <path id="Path_720" data-name="Path 720" d="M170.787,88.181a.223.223,0,0,1-.119.288.47.47,0,0,1-.5-.139.292.292,0,0,1,.088-.409.316.316,0,0,1,.411.112.339.339,0,0,1-.09.425Z" transform="translate(-163.264 -78.075)" fill="#5990ff" opacity="0.5"/>
      <path id="Path_721" data-name="Path 721" d="M178.6,87.148a.347.347,0,0,0,.194-.561.61.61,0,0,0-.345.156.3.3,0,0,0-.048.354.2.2,0,0,0,.319,0Z" transform="translate(-153.364 -79.634)" fill="#5990ff" opacity="0.5"/>
      <path id="Path_722" data-name="Path 722" d="M181.42,86.72a.991.991,0,0,0,.057-.856l-.647.337a.645.645,0,0,0-.268.207.388.388,0,0,0,.22.541.548.548,0,0,0,.59-.211Z" transform="translate(-150.783 -80.502)" fill="#5990ff" opacity="0.5"/>
      <path id="Path_723" data-name="Path 723" d="M186.476,91.255a.439.439,0,0,1-.535.607c-.112-.037-.216-.161-.161-.264a.263.263,0,0,1,.11-.1l.563-.326.04.106Z" transform="translate(-144.481 -74.125)" fill="#5990ff" opacity="0.5"/>
      <path id="Path_724" data-name="Path 724" d="M184.587,91.233c-.075.2.1.4.26.539s.354.306.328.517a.184.184,0,0,1-.086.145c-.134.07-.255-.1-.376-.191a1.575,1.575,0,0,0-.332-.136.715.715,0,0,1-.425-.684.4.4,0,0,1,.719.092Z" transform="translate(-146.655 -74.061)" fill="#5990ff" opacity="0.5"/>
      <path id="Path_725" data-name="Path 725" d="M183.431,91.517l-.224.1a.3.3,0,0,0,.22.3.248.248,0,0,0,.293-.2.213.213,0,0,0-.266-.213Z" transform="translate(-147.553 -73.751)" fill="#5990ff" opacity="0.5"/>
      <path id="Path_726" data-name="Path 726" d="M171.971,87.457l-.224.1a.3.3,0,0,0,.22.3.248.248,0,0,0,.293-.207.212.212,0,0,0-.264-.213Z" transform="translate(-161.308 -78.625)" fill="#5990ff" opacity="0.5"/>
      <path id="Path_727" data-name="Path 727" d="M179.441,86.532c-.026.158.185.262.341.22s.277-.161.429-.218a.581.581,0,0,1,.48.033.282.282,0,0,1,.161.224.364.364,0,0,1-.068.178,1.731,1.731,0,0,1-.667.66.81.81,0,0,1-.889-.081.624.624,0,0,1,.26-1.058Z" transform="translate(-152.565 -79.75)" fill="#5990ff" opacity="0.5"/>
      <path id="Path_728" data-name="Path 728" d="M180.506,85.033a.386.386,0,0,0-.2-.5.562.562,0,0,0-.563.1c-.068.055-.13.15-.086.227a.216.216,0,0,0,.154.084l.722.161Z" transform="translate(-151.834 -82.143)" fill="#5990ff" opacity="0.5"/>
      <path id="Path_729" data-name="Path 729" d="M176.218,84.655a.654.654,0,0,1-.825.627,1.618,1.618,0,0,1,.253-.9.564.564,0,0,1,.823-.108l.007.552Z" transform="translate(-156.931 -82.571)" fill="#5990ff" opacity="0.5"/>
      <path id="Path_730" data-name="Path 730" d="M190.138,87.646c.092-.007.163.1.156.189a.393.393,0,0,1-.136.233.476.476,0,0,1-.185.125.328.328,0,0,1-.374-.167.413.413,0,0,1,.037-.422.273.273,0,0,1,.172-.121.148.148,0,0,1,.167.106Z" transform="translate(-139.93 -78.559)" fill="#5990ff" opacity="0.5"/>
      <path id="Path_731" data-name="Path 731" d="M178.008,86.236,177.9,86a.538.538,0,0,0-.332.2c-.068.114,0,.306.136.29a.29.29,0,0,0,.13-.07l.37-.3Z" transform="translate(-154.346 -80.337)" fill="#5990ff" opacity="0.5"/>
      <path id="Path_732" data-name="Path 732" d="M176.325,86.373a1.52,1.52,0,0,0-.447-.44.527.527,0,0,0-.592.02.47.47,0,0,0-.145.271.583.583,0,1,0,1.155.145Z" transform="translate(-157.243 -80.516)" fill="#5990ff" opacity="0.5"/>
      <path id="Path_733" data-name="Path 733" d="M175.319,85.384l-.407-.139a.759.759,0,0,0-.114.306.406.406,0,0,0,.563-.062Z" transform="translate(-157.645 -81.245)" fill="#5990ff" opacity="0.5"/>
      <path id="Path_734" data-name="Path 734" d="M171.861,85.662a5.4,5.4,0,0,0-2.429.389.961.961,0,0,0-.341.2.765.765,0,0,0-.123.728,1.587,1.587,0,0,0,1.386,1.113,1.969,1.969,0,0,0,1.655-.75,1.322,1.322,0,0,0,.332-.957.746.746,0,0,0-.671-.676.162.162,0,0,0,.1.253Z" transform="translate(-164.689 -80.76)" fill="#5990ff" opacity="0.5"/>
      <path id="Path_735" data-name="Path 735" d="M181.959,89.54a.569.569,0,1,0-.973-.185.45.45,0,0,0,.3.4c.233.062.449-.136.61-.315l.011.2Z" transform="translate(-150.223 -76.934)" fill="#5990ff" opacity="0.5"/>
      <path id="Path_736" data-name="Path 736" d="M180.894,89.483a.526.526,0,0,0-.293-.143.543.543,0,0,0-.288.123,4.632,4.632,0,0,1-.766.422l1.4.409a.249.249,0,0,1,.1.048c.1.084.044.255.086.383.059.187.306.229.5.209C183.028,90.795,181.362,89.857,180.894,89.483Z" transform="translate(-151.945 -76.329)" fill="#5990ff" opacity="0.5"/>
      <path id="Path_737" data-name="Path 737" d="M183.259,91.507a.609.609,0,0,1,.317.156.989.989,0,0,1-.885.024c-.163-.051-.352-.143-.363-.312-.009-.119.079-.222.114-.334.07-.229-.042-.55.167-.665a.294.294,0,0,1,.354.11.843.843,0,0,1,.128.378c.046.29.095.581.143.871Z" transform="translate(-148.607 -75.116)" fill="#5990ff" opacity="0.5"/>
      <path id="Path_738" data-name="Path 738" d="M180.939,91.522a.225.225,0,0,1-.119.288.47.47,0,0,1-.5-.139.292.292,0,0,1,.088-.409.316.316,0,0,1,.411.112.34.34,0,0,1-.09.425Z" transform="translate(-151.079 -74.064)" fill="#5990ff" opacity="0.5"/>
      <path id="Path_739" data-name="Path 739" d="M181.168,91.08a.345.345,0,0,0-.18-.566.6.6,0,0,0-.183.332.293.293,0,0,0,.172.312c.123.04.279-.068.255-.194Z" transform="translate(-150.437 -74.92)" fill="#5990ff" opacity="0.5"/>
      <path id="Path_740" data-name="Path 740" d="M183.058,89.225a.99.99,0,0,0-.469-.722c-.106.22-.211.438-.315.658a.646.646,0,0,0-.092.326.391.391,0,0,0,.5.3.548.548,0,0,0,.348-.524Z" transform="translate(-148.783 -77.334)" fill="#5990ff" opacity="0.5"/>
      <path id="Path_741" data-name="Path 741" d="M189.26,89.659l-.227.1a.3.3,0,0,0,.22.3.248.248,0,0,0,.293-.2.214.214,0,0,0-.264-.216Z" transform="translate(-140.559 -75.981)" fill="#5990ff" opacity="0.5"/>
      <path id="Path_742" data-name="Path 742" d="M181.429,90.454c.073.143.3.1.4-.029a4.608,4.608,0,0,0,.211-.431.587.587,0,0,1,.4-.26.28.28,0,0,1,.264.081.359.359,0,0,1,.051.185,1.732,1.732,0,0,1-.136.929.812.812,0,0,1-.764.466.623.623,0,0,1-.425-1Z" transform="translate(-149.827 -75.861)" fill="#5990ff" opacity="0.5"/>
      <path id="Path_743" data-name="Path 743" d="M181.431,88.31a.389.389,0,0,0-.462-.277.558.558,0,0,0-.392.416c-.022.084-.015.2.066.233a.224.224,0,0,0,.174-.026l.676-.3Z" transform="translate(-150.722 -77.909)" fill="#5990ff" opacity="0.5"/>
      <path id="Path_744" data-name="Path 744" d="M184.257,92.577a.654.654,0,0,1-.825.627,1.613,1.613,0,0,1,.253-.9.567.567,0,0,1,.823-.11l.007.554Z" transform="translate(-147.282 -73.062)" fill="#5990ff" opacity="0.5"/>
      <path id="Path_745" data-name="Path 745" d="M180.159,90.731l-.224-.125a.532.532,0,0,0-.147.359c.013.132.187.24.282.147a.264.264,0,0,0,.064-.134l.114-.462Z" transform="translate(-151.659 -74.918)" fill="#5990ff" opacity="0.5"/>
      <path id="Path_746" data-name="Path 746" d="M182.391,87.064a1.547,1.547,0,0,0-.447-.44.531.531,0,0,0-.592.022.457.457,0,0,0-.145.271.583.583,0,1,0,1.155.145Z" transform="translate(-149.962 -79.684)" fill="#5990ff" opacity="0.5"/>
      <path id="Path_747" data-name="Path 747" d="M178.092,84.459c-.207.051-.279.306-.3.517s-.057.464-.249.561a.18.18,0,0,1-.167.009c-.132-.07-.057-.268-.051-.418a1.519,1.519,0,0,0-.073-.352.718.718,0,0,1,.332-.733.392.392,0,0,1,.323.647Z" transform="translate(-154.714 -82.688)" fill="#5990ff" opacity="0.5"/>
      <path id="Path_748" data-name="Path 748" d="M176,85.633c-.209.048-.282.3-.3.517s-.057.464-.246.559a.185.185,0,0,1-.169.009c-.132-.07-.057-.268-.051-.418a1.661,1.661,0,0,0-.07-.352.714.714,0,0,1,.33-.733.405.405,0,0,1,.376.218.41.41,0,0,1-.051.431Z" transform="translate(-157.231 -81.281)" fill="#5990ff" opacity="0.5"/>
      <path id="Path_749" data-name="Path 749" d="M174.207,84.868a1.136,1.136,0,0,0-.5-.125.2.2,0,0,0-.081.013.162.162,0,0,0-.086.13.338.338,0,0,0,.178.33.414.414,0,0,0,.383-.011.273.273,0,0,0,.141-.156.156.156,0,0,0-.073-.187.034.034,0,0,0,0,.057Z" transform="translate(-159.16 -81.847)" fill="#5990ff" opacity="0.5"/>
      <path id="Path_750" data-name="Path 750" d="M185.494,87.843a1.289,1.289,0,0,0-.893-.7,1.323,1.323,0,0,0-.081.519.458.458,0,0,0,.3.4c.233.059.447-.136.609-.315l.011.2Z" transform="translate(-145.982 -78.971)" fill="#5990ff" opacity="0.5"/>
      <path id="Path_751" data-name="Path 751" d="M183.87,90.163a.508.508,0,0,0-.293-.141.527.527,0,0,0-.288.123,4.789,4.789,0,0,1-.766.42c.466.139.931.275,1.4.411a.277.277,0,0,1,.1.046c.1.086.046.255.086.383.059.187.306.231.5.211C186,91.474,184.338,90.537,183.87,90.163Z" transform="translate(-148.373 -75.51)" fill="#5990ff" opacity="0.5"/>
      <path id="Path_752" data-name="Path 752" d="M185.2,92.434l-.4-.141a.683.683,0,0,0,.233.759c.24.15.638-.026.614-.31-.013-.176-.106-.444.07-.455Z" transform="translate(-145.681 -72.791)" fill="#5990ff" opacity="0.5"/>
      <path id="Path_753" data-name="Path 753" d="M188.614,89.464a.591.591,0,1,1-.031-.042Z" transform="translate(-142.338 -76.477)" fill="#5990ff" opacity="0.5"/>
      <path id="Path_754" data-name="Path 754" d="M186.572,89.762c.317.022.724.125.75.442s-.332.478-.625.563c-.125.035-.279.068-.374-.022-.235-.218.271-.629.088-.893.035-.084.2-.029.174.062Z" transform="translate(-143.887 -75.822)" fill="#5990ff" opacity="0.5"/>
      <path id="Path_755" data-name="Path 755" d="M186.793,89.81a.577.577,0,0,1,.317.156.989.989,0,0,1-.885.024c-.163-.051-.352-.143-.363-.315-.007-.119.079-.22.114-.332.07-.229-.042-.55.167-.665a.294.294,0,0,1,.354.11.843.843,0,0,1,.128.378l.143.871Z" transform="translate(-144.365 -77.153)" fill="#5990ff" opacity="0.5"/>
      <path id="Path_756" data-name="Path 756" d="M186.177,91.3c-.141-.2-.5,0-.5.246a.9.9,0,0,0,.376.612.868.868,0,0,0,.262-.924Z" transform="translate(-144.592 -74.074)" fill="#5990ff" opacity="0.5"/>
      <path id="Path_757" data-name="Path 757" d="M184.7,89.383a.345.345,0,0,0-.18-.565.61.61,0,0,0-.183.332.292.292,0,0,0,.172.31.2.2,0,0,0,.255-.194Z" transform="translate(-146.195 -76.957)" fill="#5990ff" opacity="0.5"/>
      <path id="Path_758" data-name="Path 758" d="M182.329,87.573a.346.346,0,0,0-.18-.565.607.607,0,0,0-.18.332.288.288,0,0,0,.172.312.194.194,0,0,0,.253-.194Z" transform="translate(-149.041 -79.13)" fill="#5990ff" opacity="0.5"/>
      <path id="Path_759" data-name="Path 759" d="M183.638,93.313a.981.981,0,0,0-.466-.722l-.317.658a.64.64,0,0,0-.092.326.392.392,0,0,0,.5.3.551.551,0,0,0,.348-.524Z" transform="translate(-148.086 -72.426)" fill="#5990ff" opacity="0.5"/>
      <path id="Path_760" data-name="Path 760" d="M185.925,90.022a.754.754,0,0,0-.328-.779.913.913,0,0,0-.328.541.6.6,0,0,0,.352.7c.273.079.592-.264.425-.5Z" transform="translate(-145.09 -76.445)" fill="#5990ff" opacity="0.5"/>
      <path id="Path_761" data-name="Path 761" d="M186.376,91.022a.449.449,0,0,1-.055.557l-.623-.24a.514.514,0,0,1,.629-.488Z" transform="translate(-144.562 -74.536)" fill="#5990ff" opacity="0.5"/>
      <path id="Path_762" data-name="Path 762" d="M184.9,91.229a.44.44,0,0,1-.537.607c-.112-.037-.216-.161-.161-.264a.257.257,0,0,1,.11-.095l.563-.328.04.106Z" transform="translate(-146.377 -74.156)" fill="#5990ff" opacity="0.5"/>
      <path id="Path_763" data-name="Path 763" d="M183.007,91.207c-.075.2.1.4.26.539s.354.306.328.517a.183.183,0,0,1-.086.145c-.134.07-.255-.1-.376-.191a1.575,1.575,0,0,0-.332-.136.714.714,0,0,1-.422-.682.393.393,0,0,1,.717.09Z" transform="translate(-148.549 -74.092)" fill="#5990ff" opacity="0.5"/>
      <path id="Path_764" data-name="Path 764" d="M181.854,91.491l-.227.1a.3.3,0,0,0,.22.3.249.249,0,0,0,.293-.207.212.212,0,0,0-.264-.213Z" transform="translate(-149.448 -73.782)" fill="#5990ff" opacity="0.5"/>
      <path id="Path_765" data-name="Path 765" d="M184.963,88.757c.073.143.3.1.4-.029a4.611,4.611,0,0,0,.211-.431.587.587,0,0,1,.4-.26.278.278,0,0,1,.264.081.353.353,0,0,1,.051.185,1.736,1.736,0,0,1-.136.929.815.815,0,0,1-.763.466.624.624,0,0,1-.425-1Z" transform="translate(-145.585 -77.898)" fill="#5990ff" opacity="0.5"/>
      <path id="Path_766" data-name="Path 766" d="M177.139,85.446c.07.143.3.1.4-.029a4.621,4.621,0,0,0,.213-.431.578.578,0,0,1,.4-.26.276.276,0,0,1,.262.081.329.329,0,0,1,.051.185,1.734,1.734,0,0,1-.136.929.811.811,0,0,1-.761.466.623.623,0,0,1-.427-1Z" transform="translate(-154.979 -81.872)" fill="#5990ff" opacity="0.5"/>
      <path id="Path_767" data-name="Path 767" d="M177.367,84.527c.073.143.3.1.4-.029a4.606,4.606,0,0,0,.211-.431.587.587,0,0,1,.4-.26.278.278,0,0,1,.264.081.358.358,0,0,1,.051.185,1.736,1.736,0,0,1-.136.929.812.812,0,0,1-.763.466.623.623,0,0,1-.425-1Z" transform="translate(-154.702 -82.975)" fill="#5990ff" opacity="0.5"/>
      <path id="Path_768" data-name="Path 768" d="M178.68,85.166c.073.143.3.1.4-.029a4.14,4.14,0,0,0,.213-.431.578.578,0,0,1,.4-.26.276.276,0,0,1,.262.081.335.335,0,0,1,.053.185,1.735,1.735,0,0,1-.136.929.818.818,0,0,1-.763.466.623.623,0,0,1-.425-1Z" transform="translate(-153.128 -82.208)" fill="#5990ff" opacity="0.5"/>
      <path id="Path_769" data-name="Path 769" d="M168.935,89.373c.073.143.3.1.4-.029a4.133,4.133,0,0,0,.213-.431.578.578,0,0,1,.4-.26.276.276,0,0,1,.262.081.336.336,0,0,1,.053.185,1.735,1.735,0,0,1-.136.929.815.815,0,0,1-.763.466.636.636,0,0,1-.506-.376.628.628,0,0,1,.081-.625Z" transform="translate(-164.825 -77.158)" fill="#5990ff" opacity="0.5"/>
      <path id="Path_770" data-name="Path 770" d="M182.009,92.4a.387.387,0,0,0-.46-.277.555.555,0,0,0-.392.414c-.022.086-.015.2.066.235a.224.224,0,0,0,.174-.026l.673-.3Z" transform="translate(-150.024 -73.001)" fill="#5990ff" opacity="0.5"/>
      <path id="Path_771" data-name="Path 771" d="M187.791,90.879a.652.652,0,0,1-.825.627,1.619,1.619,0,0,1,.253-.9.566.566,0,0,1,.823-.108l.007.555Z" transform="translate(-143.04 -75.099)" fill="#5990ff" opacity="0.5"/>
      <path id="Path_772" data-name="Path 772" d="M183.255,92.567c.092-.007.163.1.156.189a.393.393,0,0,1-.136.233.476.476,0,0,1-.185.125.33.33,0,0,1-.374-.167.418.418,0,0,1,.037-.423.273.273,0,0,1,.172-.121.147.147,0,0,1,.167.1Z" transform="translate(-148.19 -72.653)" fill="#5990ff" opacity="0.5"/>
      <path id="Path_773" data-name="Path 773" d="M183.693,89.034l-.224-.128a.551.551,0,0,0-.147.359c.013.132.187.242.282.15a.252.252,0,0,0,.062-.134l.117-.462Z" transform="translate(-147.417 -76.956)" fill="#5990ff" opacity="0.5"/>
      <path id="Path_774" data-name="Path 774" d="M176.495,89.915a1.547,1.547,0,0,0-.447-.44.527.527,0,0,0-.592.02.486.486,0,0,0-.147.271.583.583,0,1,0,1.155.145Z" transform="translate(-157.042 -76.264)" fill="#5990ff" opacity="0.5"/>
      <path id="Path_775" data-name="Path 775" d="M183.173,86a.428.428,0,0,1,.178.706,1.206,1.206,0,0,1-.493-.066.747.747,0,0,1,.231-.488Z" transform="translate(-147.971 -80.334)" fill="#5990ff" opacity="0.5"/>
      <path id="Path_776" data-name="Path 776" d="M172.268,89.581a.906.906,0,0,0-.3-.2.3.3,0,0,0-.33.077c-.123.158,0,.389-.033.585s-.24.352-.209.55a.339.339,0,0,0,.473.2.874.874,0,0,0,.376-.44.963.963,0,0,0,.13-.5.381.381,0,0,0-.326-.359Z" transform="translate(-161.731 -76.301)" fill="#5990ff" opacity="0.5"/>
      <path id="Path_777" data-name="Path 777" d="M180.372,87.145a2.511,2.511,0,0,0-.678-2.335,2.643,2.643,0,0,0-1.824,1.613,1.6,1.6,0,0,0,1.019,2.011c.825.183,1.7-.825,1.261-1.549Z" transform="translate(-154.04 -81.767)" fill="#5990ff" opacity="0.5"/>
      <path id="Path_778" data-name="Path 778" d="M183.576,85.445a.222.222,0,0,1-.266.158.418.418,0,0,1-.26-.218.384.384,0,0,1-.059-.194.292.292,0,0,1,.315-.275.314.314,0,0,1,.262.337.337.337,0,0,1-.326.286Z" transform="translate(-147.811 -81.64)" fill="#5990ff" opacity="0.5"/>
      <path id="Path_779" data-name="Path 779" d="M181.6,85.664c-.18.114-.163.381-.114.588s.1.458-.048.61a.181.181,0,0,1-.156.066c-.147-.024-.141-.235-.185-.378a1.681,1.681,0,0,0-.185-.308.72.72,0,0,1,.07-.8.394.394,0,0,1,.519.5Z" transform="translate(-150.412 -81.048)" fill="#5990ff" opacity="0.5"/>
      <path id="Path_780" data-name="Path 780" d="M178.723,87.193l-.242-.055a.3.3,0,0,0,0,.374.246.246,0,0,0,.356.009.212.212,0,0,0-.084-.33Z" transform="translate(-153.304 -78.972)" fill="#5990ff" opacity="0.5"/>
      <path id="Path_781" data-name="Path 781" d="M181,86.9a.167.167,0,0,1,.011.244.388.388,0,0,1-.249.106.473.473,0,0,1-.222-.011.33.33,0,0,1-.2-.359.42.42,0,0,1,.284-.315.265.265,0,0,1,.209.007.144.144,0,0,1,.07.183Z" transform="translate(-150.999 -79.68)" fill="#5990ff" opacity="0.5"/>
      <path id="Path_782" data-name="Path 782" d="M170.409,89.071a2.508,2.508,0,0,0-1.941-1.463,2.644,2.644,0,0,0-.493,2.383,1.6,1.6,0,0,0,2.02,1,1.148,1.148,0,0,0,.084-2Z" transform="translate(-165.97 -78.408)" fill="#5990ff" opacity="0.5"/>
      <path id="Path_783" data-name="Path 783" d="M183.5,88.435c-.141-.2-.5,0-.5.246a.89.89,0,0,0,.374.612.864.864,0,0,0,.264-.924Z" transform="translate(-147.797 -77.515)" fill="#5990ff" opacity="0.5"/>
      <path id="Path_784" data-name="Path 784" d="M181.961,92.21c.073.143.3.1.4-.026s.128-.3.213-.431a.581.581,0,0,1,.4-.262.287.287,0,0,1,.262.081.361.361,0,0,1,.053.185,1.712,1.712,0,0,1-.139.929.808.808,0,0,1-.761.466.625.625,0,0,1-.427-1Z" transform="translate(-149.19 -73.751)" fill="#5990ff" opacity="0.5"/>
      <path id="Path_785" data-name="Path 785" d="M182.4,84.457l-.24-.055a.3.3,0,0,0,0,.372.246.246,0,0,0,.356.011.212.212,0,0,0-.084-.33Z" transform="translate(-148.891 -82.257)" fill="#5990ff" opacity="0.5"/>
      <path id="Path_786" data-name="Path 786" d="M183.34,86.748a5.864,5.864,0,0,0-2.544-.8,1.009,1.009,0,0,0-.429.035.834.834,0,0,0-.473.647,1.723,1.723,0,0,0,.808,1.749,2.133,2.133,0,0,0,1.969.073,1.438,1.438,0,0,0,.785-.768.81.81,0,0,0-.326-.979A.174.174,0,0,0,183.1,87Z" transform="translate(-151.562 -80.405)" fill="#5990ff" opacity="0.5"/>
      <path id="Path_787" data-name="Path 787" d="M179.1,87.96a2.517,2.517,0,0,0-1.943-1.461,2.637,2.637,0,0,0-.491,2.383,1.593,1.593,0,0,0,2.018,1,1.148,1.148,0,0,0,.084-2Z" transform="translate(-155.539 -79.739)" fill="#5990ff" opacity="0.5"/>
      <path id="Path_788" data-name="Path 788" d="M174.788,85.886a1.292,1.292,0,0,0-.893-.7,1.278,1.278,0,0,0-.079.519.449.449,0,0,0,.3.4c.233.062.447-.134.609-.312l.011.2Z" transform="translate(-158.83 -81.318)" fill="#5990ff" opacity="0.5"/>
      <path id="Path_789" data-name="Path 789" d="M173.723,85.829a.386.386,0,0,0-.581-.018,4.791,4.791,0,0,1-.766.42c.466.139.931.275,1.4.411a.277.277,0,0,1,.1.046c.1.086.044.255.086.383.059.187.306.231.5.211C175.857,87.14,174.191,86.2,173.723,85.829Z" transform="translate(-160.552 -80.713)" fill="#5990ff" opacity="0.5"/>
      <path id="Path_790" data-name="Path 790" d="M181.033,85.387l-.4-.141a.686.686,0,0,0,.231.759c.242.15.64-.026.616-.31-.013-.174-.106-.444.068-.455Z" transform="translate(-150.68 -81.251)" fill="#5990ff" opacity="0.5"/>
      <path id="Path_791" data-name="Path 791" d="M176.088,87.855a.577.577,0,0,1,.317.156,1,1,0,0,1-.884.024c-.163-.053-.352-.143-.363-.315-.007-.119.079-.22.114-.334.07-.227-.042-.55.167-.662a.293.293,0,0,1,.354.108.86.86,0,0,1,.128.381l.143.869Z" transform="translate(-157.214 -79.5)" fill="#5990ff" opacity="0.5"/>
      <path id="Path_792" data-name="Path 792" d="M175.472,89.346c-.141-.2-.5,0-.5.244a.9.9,0,0,0,.376.614.871.871,0,0,0,.262-.926Z" transform="translate(-157.441 -76.421)" fill="#5990ff" opacity="0.5"/>
      <path id="Path_793" data-name="Path 793" d="M173.768,87.871a.228.228,0,0,1-.119.288.425.425,0,0,1-.339-.02.4.4,0,0,1-.163-.119.292.292,0,0,1,.088-.409.314.314,0,0,1,.411.112.341.341,0,0,1-.09.425Z" transform="translate(-159.686 -78.448)" fill="#5990ff" opacity="0.5"/>
      <path id="Path_794" data-name="Path 794" d="M174,87.427a.346.346,0,0,0-.18-.566.617.617,0,0,0-.183.332.3.3,0,0,0,.172.312.2.2,0,0,0,.255-.194Z" transform="translate(-159.044 -79.305)" fill="#5990ff" opacity="0.5"/>
      <path id="Path_795" data-name="Path 795" d="M175.887,85.571a.986.986,0,0,0-.469-.72l-.317.656a.675.675,0,0,0-.09.328.39.39,0,0,0,.5.3.548.548,0,0,0,.348-.524Z" transform="translate(-157.39 -81.718)" fill="#5990ff" opacity="0.5"/>
      <path id="Path_796" data-name="Path 796" d="M174.194,89.274a.44.44,0,0,1-.537.607c-.112-.037-.216-.161-.161-.264a.293.293,0,0,1,.11-.1l.563-.326.042.106Z" transform="translate(-159.226 -76.503)" fill="#5990ff" opacity="0.5"/>
      <path id="Path_797" data-name="Path 797" d="M173.3,90.655c-.207.051-.279.306-.3.517s-.057.464-.249.561a.187.187,0,0,1-.167.009c-.132-.073-.057-.268-.051-.42a1.5,1.5,0,0,0-.073-.35.721.721,0,0,1,.332-.735.408.408,0,0,1,.374.218.4.4,0,0,1-.051.431Z" transform="translate(-160.46 -75.252)" fill="#5990ff" opacity="0.5"/>
      <path id="Path_798" data-name="Path 798" d="M172.288,89.873l-.207-.13a.3.3,0,0,0-.128.35.248.248,0,0,0,.334.128.211.211,0,0,0,.029-.339Z" transform="translate(-161.08 -75.845)" fill="#5990ff" opacity="0.5"/>
      <path id="Path_799" data-name="Path 799" d="M174.258,86.8c.073.145.3.1.4-.026a4.616,4.616,0,0,0,.211-.431.58.58,0,0,1,.4-.26.278.278,0,0,1,.264.081.345.345,0,0,1,.051.183,1.732,1.732,0,0,1-.136.929.811.811,0,0,1-.764.466.632.632,0,0,1-.506-.374.642.642,0,0,1,.081-.627Z" transform="translate(-158.434 -80.244)" fill="#5990ff" opacity="0.5"/>
      <path id="Path_800" data-name="Path 800" d="M174.26,84.656a.389.389,0,0,0-.462-.275.555.555,0,0,0-.392.414c-.022.086-.015.2.066.233a.223.223,0,0,0,.174-.024l.675-.306Z" transform="translate(-159.329 -82.293)" fill="#5990ff" opacity="0.5"/>
      <path id="Path_801" data-name="Path 801" d="M177.086,88.924a.653.653,0,0,1-.825.627,1.618,1.618,0,0,1,.253-.9.565.565,0,0,1,.823-.108l.007.552Z" transform="translate(-155.889 -77.446)" fill="#5990ff" opacity="0.5"/>
      <path id="Path_802" data-name="Path 802" d="M172.988,87.078l-.224-.125a.547.547,0,0,0-.147.359c.013.132.187.242.282.15a.252.252,0,0,0,.062-.134l.117-.464Z" transform="translate(-160.266 -79.304)" fill="#5990ff" opacity="0.5"/>
      <path id="Path_803" data-name="Path 803" d="M183.724,87.185a1.575,1.575,0,0,0-.447-.44.531.531,0,0,0-.592.022.472.472,0,0,0-.147.271.584.584,0,1,0,1.157.145Z" transform="translate(-148.364 -79.539)" fill="#5990ff" opacity="0.5"/>
      <path id="Path_804" data-name="Path 804" d="M178.891,90.488l-.407-.139a.772.772,0,0,0-.114.306.405.405,0,0,0,.563-.059Z" transform="translate(-153.358 -75.118)" fill="#5990ff" opacity="0.5"/>
      <path id="Path_805" data-name="Path 805" d="M188.3,88.408a.221.221,0,0,1-.119.286.41.41,0,0,1-.337-.018.389.389,0,0,1-.165-.119.292.292,0,0,1,.088-.409.314.314,0,0,1,.411.112.338.338,0,0,1-.09.425Z" transform="translate(-142.24 -77.804)" fill="#5990ff" opacity="0.5"/>
      <path id="Path_806" data-name="Path 806" d="M177.983,89.158l-.407-.139a.749.749,0,0,0-.114.3.4.4,0,0,0,.563-.059Z" transform="translate(-154.447 -76.714)" fill="#5990ff" opacity="0.5"/>
      <path id="Path_807" data-name="Path 807" d="M168.428,86.792c-.026-.158-.26-.183-.394-.092s-.207.244-.33.35a.577.577,0,0,1-.462.13.283.283,0,0,1-.229-.156.356.356,0,0,1,.007-.191,1.737,1.737,0,0,1,.4-.847.812.812,0,0,1,.867-.22.621.621,0,0,1,.112,1.08Z" transform="translate(-167.002 -80.682)" fill="#5990ff" opacity="0.5"/>
      <path id="Path_808" data-name="Path 808" d="M181.306,87.844a.913.913,0,0,0,.229.279.308.308,0,0,0,.339.024c.163-.114.108-.372.2-.55s.337-.266.363-.464-.2-.35-.394-.326a.862.862,0,0,0-.488.31.95.95,0,0,0-.273.444.378.378,0,0,0,.207.436Z" transform="translate(-149.873 -79.372)" fill="#5990ff" opacity="0.5"/>
      <path id="Path_809" data-name="Path 809" d="M177.486,86.992a4.753,4.753,0,0,0,2.169-.007.828.828,0,0,0,.326-.132.68.68,0,0,0,.207-.618,1.4,1.4,0,0,0-1.056-1.16,1.736,1.736,0,0,0-1.547.429,1.161,1.161,0,0,0-.42.788.658.658,0,0,0,.5.68.144.144,0,0,0-.053-.233Z" transform="translate(-154.805 -81.499)" fill="#5990ff" opacity="0.5"/>
      <path id="Path_810" data-name="Path 810" d="M179.119,84.4a.5.5,0,0,0-.02-.323.541.541,0,0,0-.253-.191,4.764,4.764,0,0,1-.744-.453q.168.71.337,1.415a.257.257,0,0,1,.013.114c-.024.134-.2.165-.29.264-.134.145-.048.381.066.539C179.045,86.9,179.029,84.989,179.119,84.4Z" transform="translate(-153.689 -83.427)" fill="#5990ff" opacity="0.5"/>
      <path id="Path_811" data-name="Path 811" d="M177.5,85.922l-.2-.147a.3.3,0,0,0-.152.341.249.249,0,0,0,.326.152.213.213,0,0,0,.053-.337Z" transform="translate(-154.836 -80.608)" fill="#5990ff" opacity="0.5"/>
      <path id="Path_812" data-name="Path 812" d="M177.919,84.445a.385.385,0,0,0,.011-.537.549.549,0,0,0-.554-.134c-.086.022-.178.086-.169.174a.22.22,0,0,0,.108.136l.6.433Z" transform="translate(-154.755 -83.039)" fill="#5990ff" opacity="0.5"/>
      <path id="Path_813" data-name="Path 813" d="M177.4,85.806a1.29,1.29,0,0,0,.165-1.124,1.373,1.373,0,0,0-.491.189.456.456,0,0,0-.2.458c.064.233.341.321.577.372l-.167.11Z" transform="translate(-155.167 -81.92)" fill="#5990ff" opacity="0.5"/>
      <path id="Path_814" data-name="Path 814" d="M176.736,86.344a.585.585,0,0,1,.022.352.991.991,0,0,1-.46-.755c-.037-.167-.051-.376.09-.471.1-.066.231-.04.348-.066.233-.053.455-.31.66-.185a.294.294,0,0,1,.081.361.888.888,0,0,1-.266.3c-.229.185-.458.372-.684.557Z" transform="translate(-155.875 -81.316)" fill="#5990ff" opacity="0.5"/>
      <path id="Path_815" data-name="Path 815" d="M178.611,84.965A.991.991,0,0,0,179,84.2l-.726.053a.63.63,0,0,0-.33.084.389.389,0,0,0-.013.583.549.549,0,0,0,.627.042Z" transform="translate(-154.032 -82.5)" fill="#5990ff" opacity="0.5"/>
      <path id="Path_816" data-name="Path 816" d="M176.858,84.119c-.088.132.066.312.224.334a4.414,4.414,0,0,0,.48-.029.576.576,0,0,1,.427.22.282.282,0,0,1,.062.271.363.363,0,0,1-.134.136,1.771,1.771,0,0,1-.873.343.816.816,0,0,1-.786-.431.623.623,0,0,1,.658-.867Z" transform="translate(-155.954 -82.629)" fill="#5990ff" opacity="0.5"/>
      <path id="Path_817" data-name="Path 817" d="M179.93,88.39a1.594,1.594,0,0,0,.158-.607.529.529,0,0,0-.312-.5.463.463,0,0,0-.308.007.584.584,0,1,0,.449,1.076Z" transform="translate(-152.501 -78.829)" fill="#5990ff" opacity="0.5"/>
      <path id="Path_818" data-name="Path 818" d="M180.838,86.544A1.3,1.3,0,0,0,181,85.417a1.372,1.372,0,0,0-.491.189.458.458,0,0,0-.2.46c.064.231.341.321.576.372l-.167.108Z" transform="translate(-151.035 -81.038)" fill="#5990ff" opacity="0.5"/>
      <path id="Path_819" data-name="Path 819" d="M176.626,86.045c-.211.035-.3.284-.339.5s-.088.46-.286.541a.186.186,0,0,1-.167,0c-.128-.081-.037-.273-.022-.422a1.5,1.5,0,0,0-.046-.354.714.714,0,0,1,.383-.709.394.394,0,0,1,.277.669Z" transform="translate(-156.489 -80.826)" fill="#5990ff" opacity="0.5"/>
      <path id="Path_820" data-name="Path 820" d="M182.786,89.536l-.246,0a.3.3,0,0,0,.084.363.247.247,0,0,0,.35-.073.213.213,0,0,0-.158-.3Z" transform="translate(-148.387 -76.104)" fill="#5990ff" opacity="0.5"/>
      <path id="Path_821" data-name="Path 821" d="M178.806,85.523l0-.257a.548.548,0,0,0-.385.051c-.106.079-.114.284.013.319a.237.237,0,0,0,.145-.013l.46-.13Z" transform="translate(-153.396 -81.233)" fill="#5990ff" opacity="0.5"/>
    </g>
    <g id="Group_191" data-name="Group 191" transform="translate(279.479 384.172)">
      <path id="Path_931" data-name="Path 931" d="M226.985,248.227A1.14,1.14,0,0,0,226.6,248a.383.383,0,0,0-.407.119c-.141.2.035.48,0,.726s-.277.453-.224.7a.419.419,0,0,0,.6.213,1.084,1.084,0,0,0,.438-.572,1.188,1.188,0,0,0,.128-.634.471.471,0,0,0-.429-.423Z" transform="translate(-189.504 -232.865)" fill="#fff" opacity="0.5"/>
      <path id="Path_932" data-name="Path 932" d="M214.2,244.355a.28.28,0,0,1-.128.365.518.518,0,0,1-.42,0,.523.523,0,0,1-.211-.136.363.363,0,0,1,.081-.515.39.39,0,0,1,.517.112.418.418,0,0,1-.084.533Z" transform="translate(-204.618 -237.633)" fill="#fff" opacity="0.5"/>
      <path id="Path_933" data-name="Path 933" d="M223.823,242.553a.427.427,0,0,0,.2-.706.723.723,0,0,0-.416.218.36.36,0,0,0-.037.44.244.244,0,0,0,.4-.024Z" transform="translate(-192.445 -240.234)" fill="#fff" opacity="0.5"/>
      <path id="Path_934" data-name="Path 934" d="M233.855,247.13a.561.561,0,0,1-.051.6.57.57,0,0,1-.574.187c-.141-.04-.277-.185-.216-.317a.31.31,0,0,1,.13-.125l.675-.442.057.128Z" transform="translate(-181.059 -234.009)" fill="#fff" opacity="0.5"/>
      <path id="Path_935" data-name="Path 935" d="M231.518,247.224c-.077.253.147.493.361.651s.46.354.44.618a.233.233,0,0,1-.1.187c-.161.095-.323-.112-.48-.213a1.94,1.94,0,0,0-.42-.147.886.886,0,0,1-.572-.819.49.49,0,0,1,.9.066Z" transform="translate(-183.759 -233.779)" fill="#fff" opacity="0.5"/>
      <path id="Path_936" data-name="Path 936" d="M230.109,247.644l-.273.136a.37.37,0,0,0,.295.359.309.309,0,0,0,.35-.275.266.266,0,0,0-.345-.246Z" transform="translate(-184.856 -233.326)" fill="#fff" opacity="0.5"/>
      <path id="Path_937" data-name="Path 937" d="M215.629,243.377l-.273.139a.37.37,0,0,0,.293.359.308.308,0,0,0,.35-.275.264.264,0,0,0-.343-.246Z" transform="translate(-202.236 -238.446)" fill="#fff" opacity="0.5"/>
      <path id="Path_938" data-name="Path 938" d="M220.943,241.746a1.918,1.918,0,0,0-.583-.515.657.657,0,0,0-.733.066.565.565,0,0,0-.163.345.724.724,0,1,0,1.441.1Z" transform="translate(-197.31 -241.069)" fill="#fff" opacity="0.5"/>
      <path id="Path_939" data-name="Path 939" d="M215.338,241.249a6.758,6.758,0,0,0-2.986.642,1.2,1.2,0,0,0-.407.277.953.953,0,0,0-.106.913,1.97,1.97,0,0,0,1.793,1.287,2.444,2.444,0,0,0,2-1.043,1.641,1.641,0,0,0,.348-1.208.93.93,0,0,0-.878-.792.2.2,0,0,0,.139.306Z" transform="translate(-206.537 -240.954)" fill="#fff" opacity="0.5"/>
      <path id="Path_940" data-name="Path 940" d="M228.141,245.283a1.59,1.59,0,0,0-1.155-.812,1.672,1.672,0,0,0-.064.649.562.562,0,0,0,.4.471c.293.062.546-.2.733-.429l.029.246Z" transform="translate(-188.368 -237.084)" fill="#fff" opacity="0.5"/>
      <path id="Path_941" data-name="Path 941" d="M226.81,245.318a.629.629,0,0,0-.372-.156.66.66,0,0,0-.35.174,6.006,6.006,0,0,1-.92.572l1.758.416a.368.368,0,0,1,.134.051c.134.1.07.312.13.469.086.229.394.266.636.229C229.543,246.8,227.418,245.752,226.81,245.318Z" transform="translate(-190.457 -236.255)" fill="#fff" opacity="0.5"/>
      <path id="Path_942" data-name="Path 942" d="M229.864,247.646a.721.721,0,0,1,.4.172,1.235,1.235,0,0,1-1.1.09c-.2-.053-.447-.154-.471-.365-.018-.147.084-.279.119-.422.073-.286-.088-.678.165-.834a.368.368,0,0,1,.447.112,1.073,1.073,0,0,1,.18.462l.238,1.069Z" transform="translate(-186.221 -234.95)" fill="#fff" opacity="0.5"/>
      <path id="Path_943" data-name="Path 943" d="M227.015,247.817a.281.281,0,0,1-.13.365.6.6,0,0,1-.631-.136.365.365,0,0,1,.081-.515.389.389,0,0,1,.517.112.421.421,0,0,1-.081.533Z" transform="translate(-189.243 -233.477)" fill="#fff" opacity="0.5"/>
      <path id="Path_944" data-name="Path 944" d="M227.265,247.248a.43.43,0,0,0-.262-.689.746.746,0,0,0-.2.425.36.36,0,0,0,.233.376c.154.042.341-.1.3-.257Z" transform="translate(-188.5 -234.578)" fill="#fff" opacity="0.5"/>
      <path id="Path_945" data-name="Path 945" d="M229.462,244.83a1.224,1.224,0,0,0-.627-.863l-.35.836a.825.825,0,0,0-.09.411.485.485,0,0,0,.64.341.686.686,0,0,0,.4-.673Z" transform="translate(-186.59 -237.689)" fill="#fff" opacity="0.5"/>
      <path id="Path_946" data-name="Path 946" d="M237.21,244.951l-.273.136a.37.37,0,0,0,.293.359.31.31,0,0,0,.35-.275.264.264,0,0,0-.343-.246Z" transform="translate(-176.332 -236.559)" fill="#fff" opacity="0.5"/>
      <path id="Path_947" data-name="Path 947" d="M227.524,246.491c.1.174.383.1.5-.062a5.266,5.266,0,0,0,.235-.548.719.719,0,0,1,.484-.35.347.347,0,0,1,.332.084.421.421,0,0,1,.075.224,2.168,2.168,0,0,1-.106,1.162,1.012,1.012,0,0,1-.915.629.793.793,0,0,1-.653-.434.784.784,0,0,1,.059-.779Z" transform="translate(-187.783 -235.821)" fill="#fff" opacity="0.5"/>
      <path id="Path_948" data-name="Path 948" d="M227.4,243.809a.48.48,0,0,0-.59-.312.69.69,0,0,0-.458.539c-.022.108-.007.246.1.286a.27.27,0,0,0,.213-.044l.816-.423Z" transform="translate(-189.048 -238.275)" fill="#fff" opacity="0.5"/>
      <path id="Path_949" data-name="Path 949" d="M231.167,248.919a.813.813,0,0,1-.981.834,2.039,2.039,0,0,1,.253-1.131.7.7,0,0,1,1.012-.189l.046.684Z" transform="translate(-184.435 -232.506)" fill="#fff" opacity="0.5"/>
      <path id="Path_950" data-name="Path 950" d="M225.988,246.894l-.286-.141a.669.669,0,0,0-.158.453c.026.163.249.286.361.165a.321.321,0,0,0,.066-.169l.114-.581Z" transform="translate(-190.013 -234.503)" fill="#fff" opacity="0.5"/>
      <path id="Path_951" data-name="Path 951" d="M230.544,245.964a.623.623,0,0,0-.372-.156.657.657,0,0,0-.35.172,6.1,6.1,0,0,1-.918.574l1.758.414a.347.347,0,0,1,.132.053c.134.1.073.312.132.469.086.227.394.264.634.227C233.279,247.445,231.151,246.4,230.544,245.964Z" transform="translate(-185.973 -235.479)" fill="#fff" opacity="0.5"/>
      <path id="Path_952" data-name="Path 952" d="M232.358,248.685l-.508-.147a.847.847,0,0,0,.339.926c.308.169.79-.075.742-.425-.029-.216-.161-.544.055-.57Z" transform="translate(-182.467 -232.285)" fill="#fff" opacity="0.5"/>
      <path id="Path_953" data-name="Path 953" d="M236.384,244.763a.734.734,0,1,1-.042-.051Z" transform="translate(-178.558 -237.065)" fill="#fff" opacity="0.5"/>
      <path id="Path_954" data-name="Path 954" d="M233.859,245.258c.4,0,.907.106.962.5.051.374-.381.614-.737.739a.481.481,0,0,1-.466,0c-.3-.253.293-.8.048-1.111.042-.108.244-.051.222.062Z" transform="translate(-180.423 -236.139)" fill="#fff" opacity="0.5"/>
      <path id="Path_955" data-name="Path 955" d="M234.132,245.306a.714.714,0,0,1,.4.172,1.229,1.229,0,0,1-1.094.09c-.2-.053-.447-.154-.471-.365-.018-.147.084-.279.119-.422.073-.286-.088-.678.165-.834a.36.36,0,0,1,.444.112,1.038,1.038,0,0,1,.183.462c.079.356.158.713.235,1.069Z" transform="translate(-181.099 -237.761)" fill="#fff" opacity="0.5"/>
      <path id="Path_956" data-name="Path 956" d="M239.014,246.926a.74.74,0,0,1,.4.174,1.235,1.235,0,0,1-1.1.088c-.2-.053-.447-.154-.471-.365-.018-.145.084-.277.119-.42.073-.288-.088-.68.165-.834a.365.365,0,0,1,.447.11,1.072,1.072,0,0,1,.18.462L239,247.21Z" transform="translate(-175.239 -235.814)" fill="#fff" opacity="0.5"/>
      <path id="Path_957" data-name="Path 957" d="M233.491,247.195c-.189-.242-.62.031-.607.337a1.106,1.106,0,0,0,.5.735,1.074,1.074,0,0,0,.264-1.164Z" transform="translate(-181.197 -233.926)" fill="#fff" opacity="0.5"/>
      <path id="Path_958" data-name="Path 958" d="M231.533,244.907a.43.43,0,0,0-.262-.689.746.746,0,0,0-.2.425.362.362,0,0,0,.233.376c.154.042.339-.1.3-.257Z" transform="translate(-183.377 -237.388)" fill="#fff" opacity="0.5"/>
      <path id="Path_959" data-name="Path 959" d="M230.457,249.86a1.216,1.216,0,0,0-.629-.863c-.114.277-.231.557-.348.836a.815.815,0,0,0-.092.409.486.486,0,0,0,.642.341.678.678,0,0,0,.394-.671Z" transform="translate(-185.398 -231.651)" fill="#fff" opacity="0.5"/>
      <path id="Path_960" data-name="Path 960" d="M233.082,245.625a.935.935,0,0,0-.46-.944,1.129,1.129,0,0,0-.37.693.754.754,0,0,0,.482.841c.345.079.717-.367.493-.645Z" transform="translate(-181.963 -236.832)" fill="#fff" opacity="0.5"/>
      <path id="Path_961" data-name="Path 961" d="M233.715,246.842a.559.559,0,0,1-.031.693c-.262-.086-.526-.172-.79-.255a.641.641,0,0,1,.75-.649Z" transform="translate(-181.187 -234.508)" fill="#fff" opacity="0.5"/>
      <path id="Path_962" data-name="Path 962" d="M231.9,247.2a.546.546,0,0,1-.625.79c-.141-.04-.277-.185-.216-.317a.31.31,0,0,1,.13-.125l.675-.442.057.128Z" transform="translate(-183.41 -233.92)" fill="#fff" opacity="0.5"/>
      <path id="Path_963" data-name="Path 963" d="M229.559,247.3c-.077.255.147.493.361.654s.46.354.44.618a.229.229,0,0,1-.1.185c-.161.1-.323-.11-.48-.211a1.938,1.938,0,0,0-.42-.147.886.886,0,0,1-.572-.819.49.49,0,0,1,.9.066Z" transform="translate(-186.11 -233.692)" fill="#fff" opacity="0.5"/>
      <path id="Path_964" data-name="Path 964" d="M228.15,247.716l-.273.139a.37.37,0,0,0,.295.359.308.308,0,0,0,.348-.275.263.263,0,0,0-.343-.246Z" transform="translate(-187.207 -233.237)" fill="#fff" opacity="0.5"/>
      <path id="Path_965" data-name="Path 965" d="M211.959,245.988c.1.174.383.1.5-.062a5.259,5.259,0,0,0,.235-.548.73.73,0,0,1,.484-.35.345.345,0,0,1,.332.084.421.421,0,0,1,.075.224,2.148,2.148,0,0,1-.106,1.162,1.012,1.012,0,0,1-.915.629.775.775,0,0,1-.594-1.215Z" transform="translate(-206.465 -236.425)" fill="#fff" opacity="0.5"/>
      <path id="Path_966" data-name="Path 966" d="M228.394,248.838a.485.485,0,0,0-.592-.312.7.7,0,0,0-.458.541c-.02.108,0,.246.1.284a.269.269,0,0,0,.213-.042l.814-.422Z" transform="translate(-187.856 -232.237)" fill="#fff" opacity="0.5"/>
      <path id="Path_967" data-name="Path 967" d="M235.435,246.578a.813.813,0,0,1-.981.834,2.021,2.021,0,0,1,.253-1.131.7.7,0,0,1,1.012-.189l.046.684Z" transform="translate(-179.313 -235.316)" fill="#fff" opacity="0.5"/>
      <path id="Path_968" data-name="Path 968" d="M229.953,248.956a.209.209,0,0,1,.2.224.48.48,0,0,1-.152.3.593.593,0,0,1-.222.167.408.408,0,0,1-.473-.183.518.518,0,0,1,.018-.526.335.335,0,0,1,.2-.163.182.182,0,0,1,.213.119Z" transform="translate(-185.562 -231.921)" fill="#fff" opacity="0.5"/>
      <path id="Path_969" data-name="Path 969" d="M230.256,244.552l-.286-.141a.678.678,0,0,0-.158.455c.024.163.246.286.359.165a.306.306,0,0,0,.068-.169l.112-.583Z" transform="translate(-184.89 -237.314)" fill="#fff" opacity="0.5"/>
      <path id="Path_970" data-name="Path 970" d="M221.388,246.129a1.924,1.924,0,0,0-.583-.517.657.657,0,0,0-.733.066.571.571,0,0,0-.163.345.724.724,0,1,0,1.441.1Z" transform="translate(-196.776 -235.811)" fill="#fff" opacity="0.5"/>
      <path id="Path_971" data-name="Path 971" d="M216.1,246a1.106,1.106,0,0,0-.385-.227.378.378,0,0,0-.407.117c-.141.2.035.48,0,.726s-.277.453-.224.7a.419.419,0,0,0,.6.213,1.075,1.075,0,0,0,.438-.572,1.188,1.188,0,0,0,.128-.634.471.471,0,0,0-.429-.42Z" transform="translate(-202.566 -235.543)" fill="#fff" opacity="0.5"/>
      <path id="Path_972" data-name="Path 972" d="M223.979,242.591l-.3-.053a.371.371,0,0,0,.02.462.308.308,0,0,0,.444-.011.265.265,0,0,0-.128-.4Z" transform="translate(-192.333 -239.404)" fill="#fff" opacity="0.5"/>
      <path id="Path_973" data-name="Path 973" d="M213.745,245.494a3.113,3.113,0,0,0-2.5-1.683,3.277,3.277,0,0,0-.451,2.988,1.983,1.983,0,0,0,2.572,1.107,1.426,1.426,0,0,0-.033-2.48Z" transform="translate(-207.945 -237.876)" fill="#fff" opacity="0.5"/>
      <path id="Path_974" data-name="Path 974" d="M229.988,243.821c-.189-.244-.62.029-.607.337a1.11,1.11,0,0,0,.5.735,1.075,1.075,0,0,0,.264-1.164Z" transform="translate(-185.402 -237.977)" fill="#fff" opacity="0.5"/>
      <path id="Path_975" data-name="Path 975" d="M228.3,248.634c.1.174.383.1.5-.059a5.813,5.813,0,0,0,.233-.55.73.73,0,0,1,.484-.35.351.351,0,0,1,.332.084.423.423,0,0,1,.077.224,2.166,2.166,0,0,1-.108,1.162,1.009,1.009,0,0,1-.915.629.772.772,0,0,1-.594-1.212Z" transform="translate(-186.852 -233.249)" fill="#fff" opacity="0.5"/>
      <path id="Path_976" data-name="Path 976" d="M224.445,243.535a3.115,3.115,0,0,0-2.5-1.681,3.274,3.274,0,0,0-.451,2.986,1.982,1.982,0,0,0,2.57,1.107,1.425,1.425,0,0,0-.031-2.48Z" transform="translate(-195.102 -240.226)" fill="#fff" opacity="0.5"/>
      <path id="Path_977" data-name="Path 977" d="M217.673,241.27a.637.637,0,0,0-.372-.156.661.661,0,0,0-.35.174,6.091,6.091,0,0,1-.918.572l1.756.416a.354.354,0,0,1,.134.051c.134.1.073.315.132.471.086.227.394.264.634.227C220.408,242.753,218.281,241.7,217.673,241.27Z" transform="translate(-201.422 -241.114)" fill="#fff" opacity="0.5"/>
      <path id="Path_978" data-name="Path 978" d="M220.728,243.6a.739.739,0,0,1,.4.174,1.23,1.23,0,0,1-1.094.088c-.207-.053-.449-.154-.473-.365-.018-.145.084-.277.121-.422.07-.286-.088-.678.163-.832a.365.365,0,0,1,.447.11,1.075,1.075,0,0,1,.183.462q.116.535.235,1.069Z" transform="translate(-197.187 -239.809)" fill="#fff" opacity="0.5"/>
      <path id="Path_979" data-name="Path 979" d="M220.087,245.488c-.187-.242-.62.031-.607.339a1.119,1.119,0,0,0,.506.735,1.077,1.077,0,0,0,.264-1.166Z" transform="translate(-197.286 -235.975)" fill="#fff" opacity="0.5"/>
      <path id="Path_980" data-name="Path 980" d="M217.878,243.769a.281.281,0,0,1-.13.365.512.512,0,0,1-.418,0,.5.5,0,0,1-.211-.136.364.364,0,0,1,.081-.515.39.39,0,0,1,.517.112.421.421,0,0,1-.084.533Z" transform="translate(-200.207 -238.336)" fill="#fff" opacity="0.5"/>
      <path id="Path_981" data-name="Path 981" d="M218.129,243.2a.428.428,0,0,0-.262-.689.754.754,0,0,0-.2.422.365.365,0,0,0,.233.376.243.243,0,0,0,.3-.257Z" transform="translate(-199.466 -239.436)" fill="#fff" opacity="0.5"/>
      <path id="Path_982" data-name="Path 982" d="M218.494,245.5a.562.562,0,0,1-.053.6.556.556,0,0,1-.572.187c-.141-.04-.279-.185-.218-.317a.339.339,0,0,1,.13-.125l.676-.442.059.128Z" transform="translate(-199.499 -235.969)" fill="#fff" opacity="0.5"/>
      <path id="Path_983" data-name="Path 983" d="M217.48,247.256c-.255.075-.328.4-.341.662s-.04.579-.268.711a.236.236,0,0,1-.209.022c-.169-.079-.088-.328-.09-.515a2,2,0,0,0-.112-.431.889.889,0,0,1,.361-.931.49.49,0,0,1,.447.781Z" transform="translate(-200.94 -234.323)" fill="#fff" opacity="0.5"/>
      <path id="Path_984" data-name="Path 984" d="M216.179,246.349l-.266-.15a.369.369,0,0,0-.134.442.31.31,0,0,0,.425.136.264.264,0,0,0,.013-.422Z" transform="translate(-201.763 -235.01)" fill="#fff" opacity="0.5"/>
      <path id="Path_985" data-name="Path 985" d="M218.388,242.443c.1.174.383.1.5-.059a5.816,5.816,0,0,0,.233-.55.73.73,0,0,1,.484-.35.351.351,0,0,1,.332.084.443.443,0,0,1,.077.224,2.167,2.167,0,0,1-.108,1.162,1.009,1.009,0,0,1-.915.629.772.772,0,0,1-.594-1.212Z" transform="translate(-198.748 -240.681)" fill="#fff" opacity="0.5"/>
      <path id="Path_986" data-name="Path 986" d="M222.031,244.871a.811.811,0,0,1-.981.834,2.044,2.044,0,0,1,.253-1.131.7.7,0,0,1,1.014-.189l.046.684Z" transform="translate(-195.401 -237.365)" fill="#fff" opacity="0.5"/>
      <path id="Path_987" data-name="Path 987" d="M216.854,242.846l-.288-.141a.669.669,0,0,0-.158.453c.026.163.249.286.361.167a.358.358,0,0,0,.068-.172l.112-.581Z" transform="translate(-200.979 -239.362)" fill="#fff" opacity="0.5"/>
      <path id="Path_988" data-name="Path 988" d="M224.4,246.666l-.51-.145a.911.911,0,0,0-.123.385.5.5,0,0,0,.693-.112Z" transform="translate(-192.137 -234.623)" fill="#fff" opacity="0.5"/>
      <path id="Path_989" data-name="Path 989" d="M223.189,245.077l-.513-.145a.918.918,0,0,0-.121.385.5.5,0,0,0,.693-.112Z" transform="translate(-193.595 -236.531)" fill="#fff" opacity="0.5"/>
      <path id="Path_990" data-name="Path 990" d="M211.151,242.819c-.044-.2-.337-.211-.5-.088s-.24.317-.385.456a.724.724,0,0,1-.565.191.343.343,0,0,1-.293-.178.427.427,0,0,1-.007-.235,2.148,2.148,0,0,1,.444-1.078,1.006,1.006,0,0,1,1.058-.332.773.773,0,0,1,.211,1.333Z" transform="translate(-209.393 -240.643)" fill="#fff" opacity="0.5"/>
      <path id="Path_991" data-name="Path 991" d="M225.541,244.01a1.956,1.956,0,0,0,.156-.761.657.657,0,0,0-.422-.6.583.583,0,0,0-.381.029.724.724,0,1,0,.629,1.3Z" transform="translate(-191.314 -239.299)" fill="#fff" opacity="0.5"/>
      <path id="Path_992" data-name="Path 992" d="M229.177,245.231l-.306.02a.37.37,0,0,0,.128.444.308.308,0,0,0,.429-.114.264.264,0,0,0-.216-.363Z" transform="translate(-186.047 -236.187)" fill="#fff" opacity="0.5"/>
    </g>
    <path id="Path_993" data-name="Path 993" d="M221.6,195.5s27.891-35.235,33.871-44.939C255.474,150.558,239.351,180.664,221.6,195.5Z" transform="translate(84.741 34.352)" fill="#34c7ff"/>
    <path id="Path_994" data-name="Path 994" d="M232.486,157.758s5.521-1.063,7.95-4.02v2.156l1.976-2.156s-.458-4.553-1.525-5.829C240.887,147.909,239.914,153.406,232.486,157.758Z" transform="translate(97.804 31.172)" fill="#34c7ff"/>
    <path id="Path_995" data-name="Path 995" d="M239.168,129.131l-7.95,21.96S238.538,139.31,239.168,129.131Z" transform="translate(96.282 8.631)" fill="#34c7ff"/>
    <path id="Path_996" data-name="Path 996" d="M197.091,269.114s29.827-73.736,40.965-83.6C238.056,185.516,204.616,258.156,197.091,269.114Z" transform="translate(55.32 76.317)" fill="#34c7ff"/>
    <path id="Path_997" data-name="Path 997" d="M201.2,136.654s-5.289,33.721-22.067,47.677C179.13,184.331,201.282,168.2,201.2,136.654Z" transform="translate(33.762 17.662)" fill="#34c7ff"/>
    <path id="Path_998" data-name="Path 998" d="M205.981,237.788s13.906,4.425,52.094,13.163,88.465,11.768,88.465,11.768S264.3,251.864,205.981,237.788Z" transform="translate(65.99 139.065)" fill="#34c7ff"/>
    <path id="Path_999" data-name="Path 999" d="M276.31,254.175s62.856-11,66.446-10.406C342.756,243.769,327.458,241.386,276.31,254.175Z" transform="translate(150.405 146.034)" fill="#34c7ff"/>
  </g>
</svg>
